<?xml version="1.0" encoding="UTF-8" standalone="no"?>
<!-- Created with Inkscape (http://www.inkscape.org/) -->

<svg
   width="92mm"
   height="20mm"
   viewBox="0 0 92 20"
   version="1.1"
   id="svg5"
   inkscape:version="1.1 (c68e22c387, 2021-05-23)"
   sodipodi:docname="Start.svg"
   xmlns:inkscape="http://www.inkscape.org/namespaces/inkscape"
   xmlns:sodipodi="http://sodipodi.sourceforge.net/DTD/sodipodi-0.dtd"
   xmlns="http://www.w3.org/2000/svg"
   xmlns:svg="http://www.w3.org/2000/svg">
  <sodipodi:namedview
     id="namedview7"
     pagecolor="#ffffff"
     bordercolor="#666666"
     borderopacity="1.0"
     inkscape:pageshadow="2"
     inkscape:pageopacity="0.0"
     inkscape:pagecheckerboard="true"
     inkscape:document-units="mm"
     showgrid="false"
     width="100mm"
     inkscape:zoom="2.8284271"
     inkscape:cx="175.18571"
     inkscape:cy="114.72808"
     inkscape:window-width="1920"
     inkscape:window-height="1001"
     inkscape:window-x="-9"
     inkscape:window-y="-9"
     inkscape:window-maximized="1"
     inkscape:current-layer="layer1"
     height="20mm" />
  <defs
     id="defs2" />
  <g
     inkscape:label="Layer 1"
     inkscape:groupmode="layer"
     id="layer1">
    <g
       aria-label="START"
       id="startText"
       style="font-size:25.4px;fill:#ff0000;stroke:#ffff00">
      <g
         id="path86923">
        <path
           style="color:#000000;-inkscape-font-specification:'Cooper Black, ';stroke:none;-inkscape-stroke:none"
           d="m 8.4548324,1.2586917 q 1.2774413,0 3.3486326,0.6325195 0.248047,0.074414 0.396875,0.074414 0.124024,0 0.744141,-0.2232421 0.198437,-0.074414 0.421679,-0.074414 0.830957,0 1.748731,1.3146484 0.930176,1.3146484 0.930176,2.5052734 0,0.6945313 -0.42168,1.1782227 -0.409277,0.471289 -1.00459,0.471289 -0.496094,0 -0.806152,-0.1984375 Q 13.502586,6.7405275 12.448387,5.7607424 10.960106,4.3716799 9.5214339,4.3716799 q -0.6945312,0 -1.1162109,0.3348633 -0.4092774,0.3348633 -0.4092774,0.8805664 0,1.0790039 1.8975586,1.624707 2.5672848,0.7565429 3.2866208,1.1038086 3.162598,1.5378906 3.162598,4.5268558 0,2.641699 -2.158008,4.316015 -2.207617,1.711524 -5.7670897,1.711524 -1.5875,0 -3.3486327,-0.372071 Q 3.3078598,18.113477 2.5265121,17.60498 1.9311996,17.208105 1.4475082,15.881055 0.97621919,14.541602 0.97621919,13.276563 q 0,-0.607715 0.24804691,-0.917774 0.3100585,-0.396875 0.7813476,-0.396875 0.4712891,0 0.9053711,0.483692 0.2604492,0.272851 1.227832,1.74873 0.4588867,0.694531 1.4510742,1.153418 1.0045898,0.458887 2.0711914,0.458887 0.9177734,0 1.4882812,-0.334864 0.5705078,-0.347265 0.5705078,-0.880566 0,-0.496094 -0.4464844,-0.855762 Q 8.8269027,13.375781 7.8223128,13.065723 6.0487777,12.507617 5.1186019,12.048731 4.1884262,11.577442 3.3822738,10.870508 1.4227036,9.1341798 1.4227036,6.9265627 q 0,-1.0914063 0.508496,-2.1208008 Q 2.4396957,3.7639651 3.3698715,3.0074221 5.4534652,1.2586917 8.4548324,1.2586917 Z"
           id="path86954" />
        <path
           class="stroke"
           style="color:#000000;-inkscape-font-specification:'Cooper Black, ';fill:#ffff00;stroke:none;-inkscape-stroke:none"
           d="m 8.4550781,0.7578125 c -2.0970332,0 -3.9250484,0.624576 -5.4042968,1.8652344 -6.938e-4,5.819e-4 -0.00126,0.00137 -0.00195,0.00195 C 2.37929,3.1710563 1.8519939,3.8287657 1.4824219,4.5859375 1.1129243,5.33458 0.921875,6.1211616 0.921875,6.9257812 c 0,1.6196832 0.7438036,3.0910528 2.1289063,4.3183598 v 0.002 h 0.00195 c 0.5676972,0.497827 1.1817651,0.91462 1.8398437,1.248047 l 0.00195,0.002 0.00195,0.002 c 0.6610628,0.326124 1.5794814,0.668586 2.7753906,1.044922 h 0.00195 0.00195 c 0.6376137,0.196794 1.0735534,0.413146 1.2832032,0.582031 0.2101965,0.169325 0.2617187,0.286068 0.2617187,0.466797 0,0.176378 -0.050498,0.280266 -0.3300781,0.451172 -0.2792499,0.162597 -0.6821064,0.263672 -1.2304688,0.263672 -0.6393616,0 -1.2543862,-0.135925 -1.8632812,-0.414063 C 5.1977293,14.61497 4.7986974,14.284325 4.5566406,13.917969 3.9134809,12.936752 3.5534844,12.396706 3.2832031,12.111328 l -0.00195,-0.002 C 2.9320838,11.721156 2.4902152,11.460938 2.0058594,11.460938 c -0.4530341,0 -0.8894114,0.228543 -1.17187502,0.58789 -0.26401804,0.330929 -0.35742188,0.756038 -0.35742188,1.228516 0,0.90545 0.16945036,1.830074 0.5,2.769531 v 0.002 l 0.001953,0.0039 C 1.3180854,16.984374 1.6911159,17.648895 2.25,18.021484 l 0.00195,0.002 h 0.00195 c 0.6165547,0.401251 1.5050746,0.700066 2.7089843,0.962891 h 0.00195 c 1.2038148,0.254328 2.3557302,0.382813 3.4531251,0.382813 2.4531182,0 4.4976832,-0.595663 6.0722652,-1.816407 h 0.002 c 1.539294,-1.194279 2.349609,-2.813656 2.349609,-4.710937 0,-2.16899 -1.220398,-3.895593 -3.443359,-4.9765626 C 12.837177,7.5942809 11.754429,7.2390676 10.035156,6.7324219 h -0.002 l -0.002,-0.00195 C 9.4407923,6.5606639 9.0281058,6.351998 8.7949219,6.1523437 8.5617379,5.9526895 8.4960938,5.8010067 8.4960938,5.5878906 c 0,-0.2376643 0.056668,-0.3541155 0.2246093,-0.4921875 0.1762365,-0.1388356 0.4200815,-0.2246094 0.8007813,-0.2246094 0.7981946,0 1.6525016,0.3846526 2.5859376,1.2558594 0.708374,0.6583714 1.130847,1.0374141 1.435547,1.2324219 0.308683,0.1975574 0.678776,0.2773438 1.076172,0.2773437 0.528819,0 1.029315,-0.2377697 1.380859,-0.6425781 0.359017,-0.4118132 0.544922,-0.9416485 0.544922,-1.5058594 0,-0.92261 -0.360147,-1.8578459 -1.019531,-2.7910156 -0.652392,-0.9345067 -1.342505,-1.5292969 -2.160157,-1.5292969 -0.202319,0 -0.401497,0.033706 -0.589843,0.1035157 -0.201708,0.072615 -0.361326,0.127343 -0.470703,0.1601562 -0.109378,0.032813 -0.212174,0.033203 -0.103516,0.033203 -0.01577,0 -0.114574,-0.01178 -0.251953,-0.052734 h -0.002 C 10.540047,0.98249788 9.3887245,0.7578125 8.4550781,0.7578125 Z m 0,1 c 0.7691025,0 1.8497949,0.1980356 3.2031249,0.6113281 l 0.002,0.00195 c 0.191727,0.057518 0.358464,0.09375 0.541016,0.09375 0.19134,0 0.251956,-0.034571 0.390625,-0.076172 0.138669,-0.041601 0.309781,-0.099568 0.521484,-0.1757813 l 0.0039,-0.00195 h 0.002 c 0.07457,-0.027965 0.152821,-0.042969 0.246093,-0.042969 0.29029,0 0.768539,0.2832064 1.339844,1.1015625 l 0.002,0.00195 c 0.57901,0.8183333 0.837891,1.5532559 0.837891,2.2167968 0,0.36183 -0.09561,0.6165014 -0.298828,0.8496094 -0.194159,0.2235764 -0.362023,0.2988281 -0.626953,0.2988281 -0.264063,10e-8 -0.432382,-0.052115 -0.53711,-0.1191406 C 13.97332,6.4480027 13.486286,6.0425387 12.789063,5.3945312 11.738126,4.4136566 10.641518,3.8710937 9.5214844,3.8710938 8.978107,3.8710937 8.4795611,4.0080737 8.09375,4.3144531 l -0.00195,0.00195 -0.00391,0.00391 C 7.7120154,4.6278468 7.4960937,5.099089 7.4960937,5.5878906 c 10e-8,0.5062192 0.2491026,0.9823046 0.6484376,1.3242188 0.3993349,0.3419142 0.9367479,0.5853 1.6113281,0.7792968 h -0.00391 c 1.7028379,0.5018026 2.8105719,0.882051 3.2089849,1.0742188 1.993831,0.9695491 2.880859,2.259879 2.880859,4.076172 0,1.624981 -0.624844,2.883735 -1.962891,3.921875 -1.368904,1.061286 -3.168097,1.605469 -5.4609372,1.605469 -1.0192698,0 -2.1017339,-0.119562 -3.2460938,-0.361329 C 4.032707,17.758707 3.2278208,17.463361 2.8027344,17.1875 2.5687105,17.030699 2.2240156,16.54592 1.9199219,15.714844 v -0.0039 c -4.743e-4,-0.0013 -0.00148,-6.53e-4 -0.00195,-0.002 -0.2963481,-0.844214 -0.4414062,-1.652301 -0.4414062,-2.43164 0,-0.337116 0.072852,-0.523194 0.1386719,-0.605469 l 0.00195,-0.0039 0.00195,-0.002 c 0.1310412,-0.167733 0.2128771,-0.205078 0.3867188,-0.205078 0.1431397,0 0.3038931,0.06284 0.5332031,0.318359 l 0.00586,0.0059 0.00391,0.0059 c 0.076219,0.07985 0.5304875,0.699207 1.171875,1.677734 v 0.002 c 0.3693707,0.559047 0.9381241,0.996138 1.6601563,1.330078 v 0.002 h 0.00195 c 0.7305567,0.333712 1.4945713,0.503907 2.2773437,0.503907 0.6726593,0 1.2609059,-0.121805 1.7421876,-0.404297 l 0.00391,-0.002 0.00391,-0.002 c 0.4774419,-0.290617 0.8105467,-0.772813 0.8105467,-1.306641 0,-0.480729 -0.247697,-0.935862 -0.6328124,-1.246094 C 9.2026105,13.035338 8.6734591,12.804321 7.9726562,12.587891 h -0.00195 C 6.8030306,12.220367 5.9186375,11.885147 5.3398437,11.599609 4.7603047,11.305466 4.2200212,10.9388 3.7148438,10.496094 l -0.00195,-0.002 C 2.4868505,9.4069436 1.921875,8.2487479 1.921875,6.9257812 c 0,-0.649952 0.1491104,-1.2750854 0.4570313,-1.8984375 l 0.00195,-0.00195 C 2.6880688,4.395986 3.1179885,3.8561454 3.6855469,3.3945313 l 0.00195,-0.00195 0.00391,-0.00195 C 4.9899135,2.3008064 6.551276,1.7578125 8.4550781,1.7578125 Z"
           id="path86956" />
      </g>
      <g
         id="path86925">
        <path
           style="color:#000000;-inkscape-font-specification:'Cooper Black, ';stroke:none;-inkscape-stroke:none"
           d="m 22.791941,1.6059573 h 6.536035 q 1.0542,-0.037207 1.922364,-0.2852539 0.37207,-0.099219 0.657324,-0.099219 1.00459,0 1.947168,1.4882813 0.95498,1.4882812 0.95498,3.0633788 0,1.0790039 -0.657324,1.5750977 -0.496094,0.3720703 -1.190625,0.3720703 -0.657324,0 -1.141016,-0.359668 Q 31.337156,6.9885744 30.865867,6.145215 30.45659,5.3762697 30.220945,5.1406252 29.985301,4.9049807 29.650437,4.9049807 q -0.458886,0 -0.657324,0.3844726 -0.198437,0.3844727 -0.198437,1.2650391 v 6.9453126 q 0,1.066601 0.223242,1.550293 0.223242,0.483691 0.843359,0.74414 0.669727,0.285254 0.905371,0.545703 0.248047,0.248047 0.248047,0.694532 0,0.892968 -1.21543,1.32705 -1.203027,0.434082 -3.7083,0.434082 -3.075781,0 -4.564063,-0.508496 -1.252636,-0.421679 -1.252636,-1.364257 0,-0.508496 0.446484,-0.79375 0.111621,-0.06201 0.880566,-0.297657 0.471289,-0.136425 0.644922,-0.520898 0.186035,-0.384473 0.297657,-1.475879 0.09922,-0.967383 0.186035,-3.125391 0.08682,-2.1704097 0.08682,-3.7579096 0,-1.116211 -0.173633,-1.5875 -0.173633,-0.4712891 -0.570508,-0.4712891 -0.483691,0 -0.942578,0.6945313 -0.830957,1.265039 -1.364257,1.6743164 -0.63252,0.4836913 -1.227832,0.4836913 -0.669727,0 -1.103809,-0.4960937 -0.434082,-0.5084961 -0.434082,-1.2898437 0,-0.7689453 0.347266,-1.6867187 0.347265,-0.9301758 0.930175,-1.7115235 0.942578,-1.265039 1.860352,-1.265039 0.248047,0 0.570508,0.074414 0.669726,0.1364257 1.091406,0.1860351 0.434082,0.049609 0.992187,0.049609 z"
           id="path86962" />
        <path
           class="stroke"
           style="color:#000000;-inkscape-font-specification:'Cooper Black, ';fill:#ffff00;stroke:none;-inkscape-stroke:none"
           d="m 31.908203,0.72070312 c -0.24814,10e-9 -0.508325,0.0428448 -0.787109,0.11718751 h -0.0039 l -0.0039,0.001953 C 30.579558,0.99233603 29.979039,1.0818749 29.310547,1.1054687 h -6.519531 c -0.357255,0 -0.668223,-0.014594 -0.933594,-0.044922 -0.255916,-0.030108 -0.605885,-0.090162 -1.03711,-0.1777344 -0.242344,-0.0559255 -0.466276,-0.0859375 -0.68164,-0.0859375 -0.841578,0 -1.58688,0.5591386 -2.261719,1.4648438 C 17.459939,2.8206949 17.126433,3.434637 16.878906,4.0976562 16.631522,4.7520044 16.5,5.3716776 16.5,5.9589844 c 0,0.6134904 0.183193,1.1800545 0.554687,1.6152343 l 0.002,0.00195 0.002,0.00195 c 0.373303,0.4266324 0.908575,0.6679687 1.478515,0.6679688 0.532291,0 1.051398,-0.2194515 1.533203,-0.5878907 0.452879,-0.3475581 0.91016,-0.9328981 1.476563,-1.7949219 l 0.002,-0.00195 c 0.259734,-0.3915633 0.440619,-0.46875 0.523438,-0.46875 0.03333,0 0.01613,-0.00213 0.02344,0.00391 0.0073,0.00603 0.04161,0.041508 0.07813,0.140625 0.07149,0.1940386 0.142578,0.6958485 0.142578,1.4140625 0,1.0492172 -0.02825,2.2962076 -0.08594,3.7382811 -0.05769,1.434025 -0.119787,2.471644 -0.183594,3.09375 -0.07216,0.705546 -0.189695,1.183962 -0.25,1.308594 l -0.0039,0.0078 -0.002,0.0059 c -0.05504,0.121881 -0.118685,0.185466 -0.328125,0.246094 h -0.0039 l -0.0039,0.002 c -0.258948,0.07936 -0.464566,0.145015 -0.619141,0.197265 -0.154574,0.05225 -0.224695,0.06689 -0.357421,0.140625 l -0.01367,0.0078 -0.01367,0.0078 c -0.411247,0.262741 -0.677735,0.731459 -0.677735,1.216797 0,0.424938 0.158943,0.838503 0.445313,1.150391 0.285797,0.311264 0.676821,0.5271 1.146484,0.685547 1.09191,0.373069 2.648491,0.535156 4.726563,0.535156 1.698214,0 2.968839,-0.136245 3.875,-0.462891 0.456278,-0.162956 0.835254,-0.37808 1.113281,-0.68164 0.278027,-0.30356 0.435547,-0.704153 0.435547,-1.115235 0,-0.386586 -0.124498,-0.768051 -0.390625,-1.039062 -0.253526,-0.275857 -0.59614,-0.460979 -1.068359,-0.66211 h -0.002 C 29.723412,15.194849 29.561976,15.033369 29.472656,14.839844 29.382428,14.644349 29.294922,14.176183 29.294922,13.5 V 6.5546875 c 0,-0.5494851 0.08164,-0.9170872 0.142578,-1.0351563 0.06025,-0.1167306 0.04661,-0.1152343 0.212891,-0.1152343 0.105959,0 0.143437,0.016484 0.216796,0.089844 0.06716,0.067157 0.292537,0.3905225 0.556641,0.8867188 l 0.0039,0.00391 0.002,0.00391 c 0.334452,0.5984917 0.680974,1.0576298 1.085938,1.3691406 l 0.0039,0.00195 0.0039,0.00195 c 0.409491,0.3044926 0.90809,0.4589844 1.4375,0.4589844 0.552306,0 1.071859,-0.1574098 1.492188,-0.4726562 0.577342,-0.4357299 0.857422,-1.1537418 0.857422,-1.9746094 0,-1.150285 -0.354212,-2.273041 -1.033203,-3.3320312 l -0.002,-0.00195 C 33.604418,1.3809691 32.824085,0.72070313 31.908203,0.72070312 Z m 0,0.99999998 c 0.422813,0 0.938014,0.3315062 1.523438,1.2558594 l 0.002,0.00195 v 0.00195 c 0.593355,0.9247103 0.876953,1.8439544 0.876953,2.7929687 0,0.6169122 -0.160728,0.948118 -0.458985,1.1738281 -0.241129,0.1808468 -0.51689,0.2734375 -0.890625,0.2734375 -0.346286,0 -0.604805,-0.087402 -0.839843,-0.2617187 h -0.002 C 31.88005,6.7734908 31.594872,6.4231629 31.302734,5.9003906 l 0.0039,0.00977 C 31.025043,5.3810932 30.821255,5.0341447 30.574219,4.7871094 30.333386,4.5462765 29.990917,4.4042969 29.650391,4.4042969 c -0.445564,0 -0.897227,0.260351 -1.101563,0.65625 -0.203644,0.3945607 -0.253906,0.8695384 -0.253906,1.4941406 V 13.5 c 0,0.74595 0.0621,1.310338 0.269531,1.759766 0.208336,0.451395 0.60797,0.787964 1.103516,0.996093 0.413135,0.176401 0.668789,0.353908 0.728515,0.419922 l 0.0078,0.0098 0.0098,0.0078 c 0.0593,0.0593 0.101563,0.136733 0.101563,0.341797 0,0.18423 -0.04671,0.300664 -0.173828,0.439453 -0.127116,0.13879 -0.35693,0.289585 -0.710938,0.416016 h -0.002 c -0.697787,0.251779 -1.895807,0.404297 -3.537109,0.404297 -2.022965,0 -3.50988,-0.175544 -4.402344,-0.480469 h -0.002 l -0.002,-0.002 c -0.364165,-0.12259 -0.599294,-0.273152 -0.730469,-0.416016 -0.131175,-0.142863 -0.181641,-0.269209 -0.181641,-0.472656 0,-0.188763 0.03853,-0.252134 0.212891,-0.365234 -0.01692,0.01133 0.04771,-0.01924 0.169922,-0.06055 0.137566,-0.0465 0.335867,-0.110818 0.585937,-0.1875 0.416867,-0.121449 0.78051,-0.404413 0.957032,-0.792969 2.56e-4,-5.36e-4 0.0017,-0.0014 0.002,-0.002 0.184369,-0.386693 0.26382,-0.887527 0.339844,-1.630859 0.06849,-0.667737 0.131389,-1.712934 0.189453,-3.15625 0.05807,-1.4518034 0.08594,-2.709897 0.08594,-3.7773441 0,-0.7700659 -0.04506,-1.3254196 -0.205078,-1.7597657 C 23.03209,4.9763312 22.915286,4.7760618 22.732422,4.625 22.549558,4.4739382 22.303515,4.3925781 22.072266,4.3925781 c -0.561777,0 -1.00891,0.387535 -1.359375,0.9179688 V 5.3125 c -0.540608,0.8230146 -0.994301,1.355001 -1.251954,1.5527344 -0.360325,0.274904 -0.663036,0.3808594 -0.923828,0.3808593 -0.321257,0 -0.518376,-0.092251 -0.722656,-0.3242187 C 17.607918,6.6793174 17.5,6.386506 17.5,5.9589844 c 0,-0.4373609 0.0993,-0.9411457 0.314453,-1.5097657 l 0.002,-0.00195 c 0.215493,-0.5772139 0.50113,-1.1050709 0.861328,-1.5878906 0.581931,-0.7810119 1.078819,-1.0625 1.460938,-1.0625 0.115364,0 0.269428,0.017254 0.457031,0.060547 l 0.0059,0.00195 h 0.0078 c 0.45498,0.092681 0.829378,0.1576612 1.132812,0.1933594 0.313406,0.035817 0.661944,0.052734 1.048829,0.052734 h 6.544921 0.0098 c 0.737107,-0.026016 1.419141,-0.126451 2.042969,-0.3046876 l -0.0098,0.00391 c 0.217309,-0.057949 0.397099,-0.083984 0.529297,-0.083984 z"
           id="path86964" />
      </g>
      <g
         id="path86927">
        <path
           style="color:#000000;-inkscape-font-specification:'Cooper Black, ';stroke:none;-inkscape-stroke:none"
           d="m 49.990281,9.9651368 2.344043,5.0229492 q 0.334863,0.694531 0.558105,0.917773 0.223242,0.21084 0.682129,0.285254 0.892969,0.136426 0.892969,0.905371 0,0.905371 -1.091407,1.302246 -1.091406,0.396875 -3.571874,0.396875 -2.80293,0 -4.154786,-0.235644 -0.620117,-0.111621 -0.992187,-0.446484 -0.359668,-0.347266 -0.359668,-0.830957 0,-0.372071 0.186035,-0.570508 0.198438,-0.21084 0.719336,-0.384473 0.58291,-0.198437 0.58291,-0.669726 0,-0.830957 -1.00459,-0.979786 -1.079004,-0.148828 -3.038574,-0.148828 -1.649511,0 -1.971972,0.198438 -0.198438,0.124023 -0.347266,0.446484 -0.148828,0.322461 -0.148828,0.620117 0,0.272852 0.09922,0.359668 0.111621,0.07441 0.694531,0.26045 0.756543,0.223242 0.756543,0.892968 0,1.475879 -3.534668,1.475879 -2.00918,0 -2.951758,-0.272851 -0.868164,-0.26045 -0.868164,-1.141016 0,-0.384473 0.186035,-0.595313 0.198438,-0.210839 0.694531,-0.384472 0.806153,-0.285254 1.21543,-0.79375 0.42168,-0.520899 1.190625,-2.207617 l 1.748731,-3.8323245 q 0.967382,-2.1083984 1.289843,-3.1501953 0.334864,-1.0541992 0.347266,-2.058789 0.0124,-1.0666015 0.124023,-1.4758789 0.124024,-0.4216797 0.533301,-0.8185546 0.855762,-0.8681641 2.182813,-0.8681641 1.252636,0 2.393652,0.9797851 1.5875,1.3394532 4.613671,7.8010741 z M 41.35825,11.527832 h 2.430859 q 0.669726,0 0.669726,-0.297656 0,-0.409277 -0.930175,-2.0091798 Q 43.10698,8.489258 42.883738,8.2412111 42.660496,7.9931642 42.412449,7.9931642 q -0.446485,0 -0.744141,0.830957 -0.04961,0.1116211 -0.359668,0.8805664 -0.520898,1.2650394 -0.520898,1.5130864 0,0.310058 0.570508,0.310058 z"
           id="path86970" />
        <path
           class="stroke"
           style="color:#000000;-inkscape-font-specification:'Cooper Black, ';fill:#ffff00;stroke:none;-inkscape-stroke:none"
           d="m 42.982422,0.68359375 c -0.991187,0 -1.872544,0.34625195 -2.533203,1.01367185 -0.316549,0.307785 -0.549796,0.6513375 -0.66211,1.0332032 l -0.002,0.00391 v 0.00586 c -0.10219,0.3746897 -0.134117,0.8738003 -0.142578,1.6015625 -0.0078,0.61577 -0.114519,1.2519442 -0.324219,1.9121093 v 0.00195 0.00195 c -0.201385,0.6506294 -0.626893,1.6934779 -1.267578,3.0898438 l -1.748047,3.8339847 c -0.506378,1.110765 -0.916424,1.841957 -1.125,2.099609 v 0.002 c -0.200945,0.249659 -0.519699,0.466887 -0.99414,0.634766 -0.369811,0.129561 -0.663135,0.271964 -0.890625,0.513672 l -0.0059,0.0059 -0.0059,0.0059 c -0.223781,0.253619 -0.310547,0.588822 -0.310547,0.925782 0,0.375681 0.0986,0.740473 0.318359,1.029296 0.219758,0.288824 0.542589,0.482698 0.90625,0.591797 h 0.002 0.002 c 0.71953,0.208285 1.729711,0.292969 3.091797,0.292969 1.213016,0 2.145271,-0.116558 2.84375,-0.408203 0.698478,-0.291645 1.189453,-0.876821 1.189453,-1.568359 0,-0.317378 -0.100846,-0.637955 -0.306641,-0.88086 -0.205794,-0.242905 -0.491326,-0.396614 -0.808594,-0.490234 l 0.01172,0.002 c -0.189509,-0.06048 -0.338476,-0.111792 -0.441406,-0.150391 -0.0014,-5.11e-4 -6e-4,5.14e-4 -0.002,0 0.0011,-0.113614 0.02634,-0.245542 0.09961,-0.404296 0.07329,-0.158791 0.140567,-0.218342 0.15625,-0.228516 -0.05456,0.03358 0.140382,-0.04783 0.441406,-0.07813 0.301025,-0.03029 0.727767,-0.04687 1.267578,-0.04687 1.293721,0 2.291954,0.05091 2.970704,0.144531 0.263753,0.04003 0.406948,0.117555 0.472656,0.181641 0.06627,0.06464 0.09961,0.126495 0.09961,0.302734 0,0.05403 -5.96e-4,0.05022 -0.02148,0.07422 -0.02089,0.024 -0.08551,0.07441 -0.222656,0.121094 h 0.0039 c -0.386794,0.128931 -0.69079,0.265947 -0.925781,0.515625 -0.230668,0.246044 -0.322266,0.582682 -0.322266,0.914062 0,0.446392 0.190443,0.87737 0.513672,1.189453 l 0.0059,0.0059 0.0059,0.0059 c 0.330178,0.297161 0.756233,0.481591 1.238281,0.568359 h 0.002 0.002 c 0.958828,0.167135 2.357605,0.242188 4.240234,0.242188 1.680311,0 2.900255,-0.119624 3.742188,-0.425781 0.421181,-0.153157 0.776066,-0.369347 1.03125,-0.673829 0.255184,-0.304481 0.388672,-0.697362 0.388672,-1.099609 0,-0.353089 -0.118969,-0.709271 -0.367188,-0.960937 -0.248218,-0.251666 -0.582244,-0.381435 -0.949218,-0.4375 h 0.0039 c -0.241525,-0.03917 -0.364646,-0.108869 -0.41211,-0.152344 -0.05565,-0.05737 -0.245345,-0.334108 -0.455078,-0.767578 l -0.002,-0.0059 -2.341797,-5.0175777 C 48.418905,5.4311975 46.944034,2.8343142 45.703125,1.7851562 l -0.002,-0.00195 C 44.872442,1.0722838 43.947033,0.68359375 42.982422,0.68359375 Z m 0,0.99999995 c 0.704727,0 1.376293,0.2651006 2.068359,0.8593751 l 0.002,0.00195 0.002,0.00195 c 0.875144,0.7384026 2.473592,3.3415107 4.482422,7.630859 l 2.345703,5.025391 0.002,0.002 c 0.233017,0.483296 0.410533,0.810924 0.654296,1.054688 l 0.0039,0.0039 0.0059,0.0059 c 0.251812,0.237823 0.578382,0.356514 0.945313,0.416016 h 0.002 0.0039 c 0.228338,0.03488 0.339234,0.100266 0.388672,0.15039 0.04944,0.05012 0.07813,0.100226 0.07813,0.259766 0,0.201334 -0.04763,0.327431 -0.15625,0.457031 -0.108618,0.129601 -0.299046,0.265527 -0.605469,0.376953 -0.613273,0.223009 -1.773413,0.365235 -3.400391,0.365235 -1.852832,0 -3.22256,-0.07977 -4.066406,-0.226563 C 45.397201,18.006965 45.165618,17.89308 45,17.746094 c -0.150166,-0.147435 -0.203125,-0.26773 -0.203125,-0.462891 0,-0.164714 0.0334,-0.209978 0.05078,-0.228516 0.02959,-0.03144 0.205936,-0.149374 0.513672,-0.251953 l 0.002,-0.002 c 0.251461,-0.0856 0.480882,-0.212866 0.654297,-0.412109 0.173415,-0.199243 0.267578,-0.470303 0.267578,-0.730469 0,-0.377731 -0.1318,-0.757572 -0.40039,-1.019531 -0.268591,-0.261959 -0.627713,-0.395584 -1.029297,-0.455078 h -0.0039 -0.002 c -0.75992,-0.104817 -1.788385,-0.154297 -3.107422,-0.154297 -0.559861,0 -1.010888,0.01688 -1.367187,0.05273 -0.356299,0.03585 -0.597654,0.05484 -0.867188,0.220703 h -0.002 c -0.249805,0.156128 -0.412679,0.392511 -0.537109,0.66211 -0.123749,0.268122 -0.193359,0.548307 -0.193359,0.830078 0,0.242508 0.008,0.50556 0.269531,0.734375 l 0.02344,0.02344 0.02734,0.01758 c 0.124317,0.08287 0.203452,0.10608 0.332031,0.154297 0.12858,0.04822 0.289185,0.102473 0.488282,0.166016 l 0.0059,0.002 0.0059,0.002 c 0.187094,0.05521 0.279786,0.122984 0.326172,0.177735 0.04639,0.05475 0.07031,0.105269 0.07031,0.234375 0,0.292379 -0.09643,0.44617 -0.576172,0.646484 -0.479743,0.200314 -1.313605,0.330078 -2.457031,0.330078 -1.316819,0 -2.275262,-0.09839 -2.8125,-0.253906 -0.211174,-0.06428 -0.323603,-0.145675 -0.392579,-0.236328 -0.06963,-0.09152 -0.115234,-0.212466 -0.115234,-0.423828 0,-0.171678 0.03435,-0.229394 0.05859,-0.257813 0.04121,-0.04119 0.201461,-0.150296 0.486328,-0.25 h 0.002 c 0.600428,-0.212459 1.092743,-0.522837 1.4375,-0.951172 0.353664,-0.436879 0.738932,-1.176263 1.257813,-2.314453 h -0.002 l 1.75,-3.8320311 c 0.648342,-1.413053 1.081754,-2.4687262 1.310547,-3.2070313 0.236577,-0.7447768 0.362167,-1.4800149 0.371094,-2.203125 0.008,-0.6923774 0.06089,-1.1753384 0.107422,-1.3476562 0.05347,-0.1777027 0.173218,-0.3753554 0.398437,-0.59375 l 0.0039,-0.00391 0.0039,-0.00391 c 0.479799,-0.4867528 1.050506,-0.7207031 1.826172,-0.7207032 z m -0.570313,5.8105469 c -0.30392,0 -0.590918,0.1605104 -0.78125,0.3730469 C 41.440528,8.079724 41.309867,8.341905 41.197266,8.65625 41.145418,8.7747343 41.044663,9.0241568 40.845703,9.5175781 v -0.00391 c -0.175823,0.4269988 -0.3081,0.7709791 -0.400391,1.0390621 -0.09229,0.268084 -0.158203,0.408334 -0.158203,0.666016 0,0.256686 0.186336,0.551465 0.404297,0.669922 0.217962,0.118457 0.430557,0.138672 0.666016,0.138672 h 2.43164 c 0.260279,0 0.480409,-0.01733 0.705079,-0.117188 0.224669,-0.09985 0.464843,-0.392969 0.464843,-0.679687 0,-0.32582 -0.113392,-0.559614 -0.279297,-0.917969 C 44.51397,9.9545503 44.275124,9.5111796 43.960937,8.9707031 V 8.96875 C 43.673526,8.4700878 43.463249,8.1366833 43.255859,7.90625 43.045433,7.6724422 42.74414,7.4941406 42.412109,7.4941406 Z m 0,1 c -0.0013,0 0.01238,-0.01489 0.09961,0.082031 0.09,0.1000013 0.30972,0.4186024 0.583984,0.8945312 v 0.00195 c 0.305402,0.5252924 0.533581,0.9483947 0.677734,1.2597657 0.08246,0.178119 0.07857,0.195659 0.105469,0.285156 -0.04182,0.004 -0.03384,0.0098 -0.08984,0.0098 h -2.43164 c -0.009,0 -0.0033,2.27e-4 -0.01172,0 0.01592,-0.06707 0.0094,-0.04529 0.04492,-0.148438 0.08134,-0.236278 0.209417,-0.568015 0.380859,-0.9843747 v -0.00195 C 41.977869,9.3807441 42.107979,9.0656396 42.125,9.0273438 l 0.0078,-0.017578 0.0059,-0.017578 c 0.08584,-0.2396258 0.178613,-0.3925823 0.236328,-0.4570312 0.05772,-0.064449 0.04337,-0.041016 0.03711,-0.041016 z"
           id="path86972" />
      </g>
      <g
         id="path86929">
        <path
           style="color:#000000;-inkscape-font-specification:'Cooper Black, ';stroke:none;-inkscape-stroke:none"
           d="m 63.074755,11.416211 q -0.471289,0 -0.607715,0.285254 -0.124023,0.285254 -0.124023,1.327051 0,1.575097 0.198437,2.455664 0.06201,0.248047 0.186035,0.384472 0.124024,0.136426 0.471289,0.334864 0.744141,0.409277 0.744141,1.079004 0,0.818554 -1.041797,1.16582 -1.029394,0.334863 -3.497461,0.334863 -4.588867,0 -4.588867,-1.736328 0,-0.297656 0.136426,-0.471289 0.136426,-0.186035 0.620117,-0.508496 0.545703,-0.359668 0.731738,-0.843359 0.198438,-0.496094 0.272852,-1.699122 0.06201,-0.880566 0.06201,-6.3127924 0,-1.7239258 -0.173633,-2.344043 Q 56.290673,4.2476565 55.720165,3.9624026 55.174462,3.7019533 54.988427,3.4911135 54.802392,3.2678713 54.802392,2.9206057 q 0,-0.4588867 0.347265,-0.79375 0.359668,-0.3472656 0.992188,-0.5084961 0.533301,-0.1364258 1.463476,-0.1364258 0.409278,0 2.046387,0.1240235 0.310059,0.024805 0.979785,0.024805 1.116211,0 2.976563,-0.1488282 1.178222,-0.086816 1.649511,-0.086816 2.654102,0 4.39043,1.2774414 1.562695,1.153418 1.562695,3.1998047 0,1.1410156 -0.545703,2.0835937 -0.545703,0.9301758 -1.500683,1.4014648 -0.396875,0.1984375 -0.396875,0.4712891 0,0.3596682 0.607715,0.5829102 1.302246,0.471289 1.90996,1.42627 0.607715,0.95498 0.868164,2.926953 0.111622,0.818554 0.322461,1.066601 0.21084,0.235645 0.979786,0.458887 0.235644,0.07441 0.396875,0.322461 0.16123,0.235645 0.16123,0.533301 0,0.384472 -0.297656,0.781347 -0.297656,0.384473 -0.768946,0.607715 -1.041796,0.483692 -2.852539,0.483692 -2.418457,0 -3.460253,-1.277442 Q 66.162939,17.170898 65.828075,16.302734 65.505614,15.43457 65.05913,13.599024 64.773876,12.420801 64.327392,11.937109 63.89331,11.453418 63.074755,11.416211 Z M 62.355419,5.0910158 62.218993,7.9807619 q 0,0.037207 0,0.1116211 0,0.4464843 0.124024,0.5953125 0.136425,0.1488281 0.5333,0.1488281 1.091407,0 1.5875,-0.5581055 0.496094,-0.5705078 0.496094,-1.8107421 0,-2.3936523 -1.699121,-2.3936523 -0.483691,0 -0.682129,0.2232421 -0.198437,0.2232422 -0.223242,0.79375 z"
           id="path86978" />
        <path
           class="stroke"
           style="color:#000000;-inkscape-font-specification:'Cooper Black, ';fill:#ffff00;stroke:none;-inkscape-stroke:none"
           d="m 65.257812,0.89453125 c -0.344893,0 -0.895193,0.0296543 -1.685546,0.0878906 l -0.002,0.001953 h -0.002 c -1.232309,0.0985848 -2.215582,0.1464844 -2.9375,0.1464844 -0.44031,0 -0.761273,-0.00918 -0.939453,-0.023437 h -0.002 c -1.094534,-0.082919 -1.760628,-0.12500002 -2.083984,-0.12500002 -0.644561,0 -1.164738,0.0440953 -1.587891,0.15234372 -0.482957,0.1231067 -0.897517,0.3264287 -1.214844,0.6328125 -0.313659,0.3024582 -0.5,0.7202938 -0.5,1.1523438 0,0.3207957 0.09513,0.6438454 0.300782,0.890625 l 0.0059,0.00586 0.0039,0.00586 c 0.215158,0.2438455 0.496518,0.4031299 0.882813,0.5878906 0.268859,0.1344295 0.403544,0.2961375 0.486328,0.5917969 0.08332,0.2975649 0.15625,1.0764883 0.15625,2.2089844 0,3.6195785 -0.02427,5.7641225 -0.06055,6.2792965 l -0.002,0.002 v 0.002 c -0.04818,0.77891 -0.149745,1.321629 -0.238281,1.542968 v 0.0039 l -0.002,0.0039 c -0.08013,0.208331 -0.239453,0.407999 -0.539062,0.605469 h -0.002 c -0.337482,0.224988 -0.562969,0.385382 -0.738281,0.621093 -0.174617,0.224292 -0.242188,0.502016 -0.242188,0.775391 0,0.399507 0.148045,0.790095 0.412109,1.089844 0.264065,0.299748 0.624594,0.515471 1.058594,0.679687 0.868001,0.328433 2.057989,0.466797 3.619141,0.466797 1.667989,0 2.854297,-0.09977 3.652344,-0.359375 l 0.002,-0.002 c 0.403169,-0.13439 0.744977,-0.324457 0.996093,-0.605469 0.251117,-0.281011 0.388672,-0.654291 0.388672,-1.033203 0,-0.631669 -0.406905,-1.189228 -1.003906,-1.517578 -0.203353,-0.117519 -0.334349,-0.224229 -0.341797,-0.232422 -0.0089,-0.0098 -0.04117,-0.06124 -0.06836,-0.166015 -6.6e-4,-0.0025 -0.0013,-0.0013 -0.002,-0.0039 -0.117138,-0.524709 -0.183594,-1.310094 -0.183594,-2.333984 0,-0.664155 0.08318,-1.110341 0.08008,-1.111328 -0.0072,0.0084 0.008,4e-4 0.128906,-0.002 0.451528,0.02052 0.713046,0.144536 0.902344,0.355468 l 0.002,0.002 0.0039,0.002 c 0.196408,0.212775 0.431516,0.698702 0.611329,1.441406 h 0.002 c 0.29991,1.232966 0.556361,2.14378 0.785156,2.759765 l 0.002,0.0039 v 0.002 c 0.237777,0.616458 0.529461,1.143277 0.884766,1.574219 0.814294,0.998481 2.147319,1.46289 3.847656,1.46289 1.251681,0 2.269567,-0.162195 3.064453,-0.53125 h 0.002 v -0.002 c 0.377748,-0.178933 0.703214,-0.431673 0.951172,-0.751953 l 0.002,-0.0039 0.002,-0.0039 c 0.244937,-0.326582 0.398438,-0.694731 0.398438,-1.080078 0,-0.286625 -0.08549,-0.573472 -0.246094,-0.810547 -0.155667,-0.237468 -0.385906,-0.434266 -0.662109,-0.521484 l -0.0059,-0.002 -0.0039,-0.002 c -0.473993,-0.137611 -0.74263,-0.313965 -0.740234,-0.308594 0.0047,0.0036 -0.13773,-0.297912 -0.207032,-0.802734 v -0.002 C 72.46954,13.344099 72.178224,12.310758 71.707031,11.570313 71.235315,10.829042 70.492474,10.28394 69.546875,9.9414063 h -0.002 c -0.11548,-0.042648 -0.155294,-0.076169 -0.201172,-0.1074219 0.01809,-0.011627 0.0147,-0.0139 0.04102,-0.027344 l 0.0039,-0.00195 c 0.718041,-0.3552747 1.298197,-0.898827 1.707031,-1.5957031 l 0.002,-0.00195 c 0.407634,-0.7040946 0.613282,-1.4935981 0.613281,-2.3339844 0,-1.491529 -0.610155,-2.7506691 -1.765625,-3.6035156 h -0.002 C 68.687854,1.3458382 67.10743,0.89453125 65.257812,0.89453125 Z m 0,0.99999995 c 1.689182,0 3.034154,0.4020802 4.09375,1.1816407 0.92722,0.6848995 1.359375,1.5604725 1.359375,2.796875 0,0.6809662 -0.158545,1.2793562 -0.478515,1.8320312 -0.317855,0.5407887 -0.736447,0.9304053 -1.289063,1.203125 l -0.002,0.00195 c -0.173286,0.086643 -0.329638,0.1905182 -0.457031,0.3417968 -0.127393,0.1512787 -0.216797,0.3640095 -0.216797,0.5761719 0,0.260694 0.131204,0.519224 0.306641,0.6875 0.175437,0.168276 0.385544,0.275836 0.628906,0.365234 h 0.002 c 0.789948,0.285886 1.319907,0.693001 1.658203,1.22461 0.338823,0.532435 0.626528,1.449622 0.794922,2.724609 v 0.002 c 0.0792,0.580762 0.149365,0.983282 0.4375,1.322266 l 0.0039,0.0059 0.0039,0.0039 c 0.289648,0.323725 0.666774,0.44692 1.21289,0.605469 l -0.01172,-0.002 c 0.03619,0.01143 0.06963,0.02599 0.128907,0.117188 l 0.002,0.0059 0.0039,0.0039 c 0.05208,0.07612 0.07422,0.143794 0.07422,0.251953 0,0.126215 -0.04641,0.276526 -0.195313,0.476563 -0.147803,0.190244 -0.334452,0.341011 -0.582031,0.458984 -4.27e-4,1.99e-4 -0.0015,-1.98e-4 -0.002,0 -0.594165,0.275504 -1.478821,0.4375 -2.640625,0.4375 -1.524269,0 -2.4975,-0.388977 -3.072266,-1.09375 v -0.002 h -0.002 C 66.748727,17.096012 66.50446,16.665432 66.296875,16.128906 l -0.002,-0.0039 c -2.39e-4,-6.18e-4 2.38e-4,-0.0013 0,-0.002 -0.200944,-0.541918 -0.455261,-1.430874 -0.75,-2.642578 -0.199851,-0.825473 -0.449133,-1.444981 -0.845703,-1.876953 -4.01e-4,-4.47e-4 -0.0016,4.46e-4 -0.002,0 -0.389453,-0.433108 -0.960391,-0.658445 -1.59961,-0.6875 h -0.01172 -0.01172 c -0.41507,0 -0.870953,0.177973 -1.058594,0.570312 l -0.0039,0.0078 -0.0039,0.0078 c -0.171427,0.394286 -0.164062,0.812972 -0.164062,1.527344 0,1.071061 0.06264,1.915038 0.208984,2.564453 l 0.002,0.0059 0.002,0.0059 c 0.05513,0.220531 0.144537,0.427744 0.300781,0.599609 0.157761,0.173537 0.341647,0.287582 0.59375,0.431641 l 0.0039,0.0039 0.002,0.002 c 0.395186,0.217352 0.486328,0.379326 0.486328,0.640625 0,0.166791 -0.03666,0.259593 -0.132812,0.367188 -0.09551,0.106877 -0.276519,0.225501 -0.564453,0.322265 -0.574478,0.186878 -1.719034,0.310547 -3.341797,0.310547 -1.498089,0 -2.604005,-0.152001 -3.265625,-0.402344 -0.33081,-0.125171 -0.543769,-0.269964 -0.66211,-0.404297 -0.11834,-0.134332 -0.162109,-0.250418 -0.162109,-0.429687 0,-0.122048 0.0241,-0.155496 0.0293,-0.162109 l 0.0059,-0.0059 0.0039,-0.0078 c 0.0057,-0.0078 0.192265,-0.186039 0.492187,-0.386719 0.427994,-0.282087 0.755909,-0.645442 0.923828,-1.082031 0.173948,-0.438148 0.253843,-1.024172 0.304688,-1.841797 v -0.0059 c 0.0463,-0.660899 0.06445,-2.723711 0.06445,-6.3437505 0,-1.1660693 -0.04517,-1.9492584 -0.19336,-2.4785156 C 56.796589,4.2012593 56.435177,3.7615337 55.943359,3.515625 l -0.0039,-0.00195 -0.0039,-0.00195 C 55.603503,3.3532433 55.406252,3.2019299 55.371094,3.1640625 c -0.04021,-0.049767 -0.06836,-0.1062929 -0.06836,-0.2441406 0,-0.1797984 0.044,-0.289568 0.19336,-0.4335938 0.16223,-0.1566364 0.409129,-0.2909453 0.769531,-0.3828125 0.287914,-0.073653 0.744172,-0.1210937 1.339844,-0.1210937 0.222347,0 0.919537,0.040602 2.007812,0.1230469 l -0.002,-0.00195 c 0.235232,0.018819 0.566875,0.027344 1.019531,0.027344 0.765373,0 1.767762,-0.050794 3.013672,-0.1503907 0.780608,-0.057518 1.329791,-0.085937 1.613281,-0.085937 z m -1.996093,1.6796876 c -0.399384,0 -0.790331,0.091027 -1.056641,0.390625 -0.265927,0.2991687 -0.330682,0.6681982 -0.349609,1.1035156 L 61.71875,7.96875 v 0.1230469 c 0,0.3439523 1.29e-4,0.6278905 0.240234,0.9160156 l 0.0078,0.00977 0.0078,0.00781 c 0.254144,0.2772495 0.575261,0.3105469 0.902344,0.3105469 0.812831,0 1.509249,-0.2164591 1.960938,-0.7246094 l 0.002,-0.00195 0.002,-0.00195 c 0.44845,-0.5157176 0.617187,-1.2471363 0.617187,-2.140625 0,-0.857037 -0.141366,-1.5567441 -0.515625,-2.0839844 -0.374258,-0.5272403 -0.997871,-0.8085938 -1.68164,-0.8085937 z m 0,0.9999999 c 0.448976,10e-8 0.67312,0.1160758 0.865234,0.3867188 0.192115,0.270643 0.332031,0.7671297 0.332031,1.5058594 0,0.7570966 -0.159366,1.2326775 -0.371093,1.4785156 -0.209905,0.2354072 -0.569498,0.390625 -1.210938,0.390625 -0.182997,0 -0.197002,-0.03666 -0.150391,0.011719 0.04981,0.056874 -0.0078,-0.022313 -0.0078,-0.2558594 v -0.099609 l 0.136719,-2.8789063 c 0.01415,-0.3253588 0.099,-0.4858878 0.09766,-0.484375 -0.0017,0.00194 0.06306,-0.054687 0.308594,-0.054687 z"
           id="path86980" />
      </g>
      <g
         id="path86931">
        <path
           style="color:#000000;-inkscape-font-specification:'Cooper Black, ';stroke:none;-inkscape-stroke:none"
           d="m 79.04897,1.6059573 h 6.536035 q 1.054199,-0.037207 1.922363,-0.2852539 0.372071,-0.099219 0.657324,-0.099219 1.00459,0 1.947168,1.4882813 0.954981,1.4882812 0.954981,3.0633788 0,1.0790039 -0.657324,1.5750977 -0.496094,0.3720703 -1.190625,0.3720703 -0.657325,0 -1.141016,-0.359668 Q 87.594185,6.9885744 87.122896,6.145215 86.713618,5.3762697 86.477974,5.1406252 86.242329,4.9049807 85.907466,4.9049807 q -0.458887,0 -0.657324,0.3844726 -0.198438,0.3844727 -0.198438,1.2650391 v 6.9453126 q 0,1.066601 0.223242,1.550293 0.223243,0.483691 0.84336,0.74414 0.669726,0.285254 0.905371,0.545703 0.248047,0.248047 0.248047,0.694532 0,0.892968 -1.21543,1.32705 -1.203027,0.434082 -3.708301,0.434082 -3.075781,0 -4.564062,-0.508496 -1.252637,-0.421679 -1.252637,-1.364257 0,-0.508496 0.446485,-0.79375 0.111621,-0.06201 0.880566,-0.297657 0.471289,-0.136425 0.644922,-0.520898 0.186035,-0.384473 0.297656,-1.475879 0.09922,-0.967383 0.186035,-3.125391 0.08682,-2.1704097 0.08682,-3.7579096 0,-1.116211 -0.173633,-1.5875 -0.173633,-0.4712891 -0.570508,-0.4712891 -0.483691,0 -0.942578,0.6945313 -0.830957,1.265039 -1.364258,1.6743164 -0.632519,0.4836913 -1.227832,0.4836913 -0.669726,0 -1.103808,-0.4960937 -0.434082,-0.5084961 -0.434082,-1.2898437 0,-0.7689453 0.347265,-1.6867187 0.347266,-0.9301758 0.930176,-1.7115235 0.942578,-1.265039 1.860351,-1.265039 0.248047,0 0.570508,0.074414 0.669727,0.1364257 1.091406,0.1860351 0.434083,0.049609 0.992188,0.049609 z"
           id="path86986" />
        <path
           class="stroke"
           style="color:#000000;-inkscape-font-specification:'Cooper Black, ';fill:#ffff00;stroke:none;-inkscape-stroke:none"
           d="m 88.164062,0.72070312 c -0.248139,10e-9 -0.506371,0.0428449 -0.785156,0.11718751 H 87.375 l -0.0059,0.001953 C 86.835418,0.99233604 86.234898,1.081875 85.566406,1.1054687 h -6.517578 c -0.35651,0 -0.668577,-0.014716 -0.933594,-0.044922 h -0.002 C 77.85796,1.0304443 77.507485,0.96996313 77.078125,0.8828125 l -0.01367,-0.001953 C 76.827635,0.82702495 76.605579,0.796875 76.394531,0.796875 c -0.841577,0 -1.58688,0.5591387 -2.261719,1.4648438 -0.417013,0.558976 -0.748566,1.1729184 -0.996093,1.8359374 -0.247384,0.6543481 -0.378907,1.2740217 -0.378907,1.8613282 0,0.6134904 0.18124,1.1800545 0.552735,1.6152343 l 0.002,0.00195 0.002,0.00195 c 0.373303,0.4266322 0.910529,0.6679688 1.480469,0.6679688 0.532291,0 1.049445,-0.2194513 1.53125,-0.5878907 h 0.002 c 0.45312,-0.3477435 0.90974,-0.9321415 1.476562,-1.7949219 0.261384,-0.395607 0.442247,-0.4707031 0.525391,-0.4707031 0.03333,0 0.01418,-0.00213 0.02148,0.00391 0.0073,0.00603 0.04356,0.041508 0.08008,0.140625 0.07149,0.1940386 0.142578,0.6958485 0.142578,1.4140625 0,1.0492172 -0.02825,2.2962076 -0.08594,3.7382811 -0.05769,1.434025 -0.12174,2.471644 -0.185547,3.09375 -0.07216,0.705546 -0.189694,1.183963 -0.25,1.308594 l -0.002,0.0078 -0.0039,0.0059 c -0.05504,0.121881 -0.118685,0.185466 -0.328125,0.246094 h -0.0039 l -0.0039,0.002 c -0.258948,0.07936 -0.462612,0.145015 -0.617187,0.197265 -0.154575,0.05225 -0.226648,0.06689 -0.359375,0.140625 l -0.01367,0.0078 -0.01172,0.0078 c -0.411247,0.262741 -0.677734,0.731459 -0.677734,1.216797 0,0.424938 0.158942,0.838503 0.445312,1.150391 0.285798,0.311264 0.676822,0.5271 1.146485,0.685547 1.091909,0.373069 2.646537,0.535156 4.724609,0.535156 1.698216,0 2.970792,-0.136245 3.876953,-0.462891 0.456279,-0.162956 0.833301,-0.37808 1.111328,-0.68164 0.278028,-0.30356 0.435547,-0.704153 0.435547,-1.115235 0,-0.387223 -0.12358,-0.769927 -0.390625,-1.041015 -0.253378,-0.274874 -0.595198,-0.459457 -1.066406,-0.660157 h -0.002 C 85.981224,15.194849 85.817836,15.033369 85.728516,14.839844 85.638287,14.644349 85.550781,14.176183 85.550781,13.5 V 6.5546875 c 0,-0.5494849 0.08359,-0.9170874 0.144531,-1.0351563 0.06025,-0.1167298 0.04661,-0.1152343 0.212891,-0.1152343 0.105958,0 0.143437,0.016483 0.216797,0.089844 0.06716,0.067158 0.292536,0.3905223 0.556641,0.8867188 l 0.002,0.00391 0.002,0.00391 c 0.334451,0.5984917 0.682927,1.0576298 1.08789,1.3691406 l 0.002,0.00195 0.0039,0.00195 c 0.40949,0.304493 0.910042,0.4589844 1.439453,0.4589844 0.552306,0 1.069906,-0.1574098 1.490234,-0.4726562 h 0.002 c 0.577342,-0.4357299 0.855469,-1.1537418 0.855469,-1.9746094 0,-1.1502851 -0.352257,-2.273041 -1.03125,-3.3320312 l -0.002,-0.00195 C 89.86223,1.3809691 89.079944,0.72070312 88.164062,0.72070312 Z m 0,0.99999998 c 0.422813,0 0.939968,0.3315062 1.525391,1.2558594 v 0.00195 l 0.002,0.00195 c 0.593356,0.9247103 0.875,1.8439545 0.875,2.7929687 0,0.6165646 -0.1591,0.9481249 -0.457031,1.1738281 -4.83e-4,3.625e-4 -0.0015,-3.617e-4 -0.002,0 -0.240785,0.1801259 -0.515686,0.2734375 -0.888672,0.2734375 -0.346287,0 -0.604806,-0.087402 -0.839844,-0.2617187 h -0.002 c -0.23707,-0.1839252 -0.522907,-0.5333445 -0.8125,-1.0488282 l -0.0059,-0.00977 C 87.280681,5.3788751 87.076969,5.0320474 86.832031,4.7871094 86.591199,4.5462773 86.248729,4.4042969 85.908203,4.4042969 c -0.445564,0 -0.897228,0.2603502 -1.101562,0.65625 -0.203645,0.3945609 -0.25586,0.8695382 -0.25586,1.4941406 V 13.5 c 0,0.74595 0.0621,1.310338 0.269531,1.759766 0.208338,0.451395 0.60797,0.787964 1.103516,0.996093 0.413135,0.176401 0.668788,0.353907 0.728516,0.419922 l 0.0098,0.0098 0.0078,0.0078 c 0.0593,0.0593 0.101562,0.136733 0.101562,0.341797 0,0.18423 -0.04476,0.300664 -0.171875,0.439453 -0.127115,0.13879 -0.356929,0.289585 -0.710937,0.416016 h -0.002 c -0.697787,0.251779 -1.89776,0.404297 -3.539063,0.404297 -2.022965,0 -3.50988,-0.175544 -4.402344,-0.480469 l -0.002,-0.002 c -0.364165,-0.12259 -0.599293,-0.273152 -0.730468,-0.416016 -0.131175,-0.142863 -0.181641,-0.269209 -0.181641,-0.472656 0,-0.188753 0.0366,-0.252145 0.210937,-0.365234 -0.01955,0.01266 0.04842,-0.01881 0.171875,-0.06055 0.13853,-0.04683 0.335302,-0.112032 0.587891,-0.189453 h 0.002 c 0.414158,-0.121857 0.77482,-0.403165 0.951172,-0.789063 0.18537,-0.387084 0.267535,-0.889547 0.34375,-1.634765 0.06849,-0.667737 0.129437,-1.712934 0.1875,-3.15625 0.05808,-1.4518034 0.08789,-2.709897 0.08789,-3.7773441 0,-0.7700659 -0.04506,-1.3254196 -0.205078,-1.7597657 C 79.289902,4.9763312 79.171146,4.7760618 78.988281,4.625 78.805417,4.4739382 78.561328,4.3925781 78.330078,4.3925781 c -0.561776,0 -1.008909,0.387535 -1.359375,0.9179688 l -0.002,0.00195 c -0.540195,0.8223864 -0.992247,1.3526898 -1.25,1.5507812 -0.361553,0.2764818 -0.66237,0.3828125 -0.923828,0.3828125 -0.321257,0 -0.518376,-0.092251 -0.722656,-0.3242187 -0.206535,-0.2425576 -0.314454,-0.535369 -0.314454,-0.9628906 0,-0.4373611 0.0993,-0.9411456 0.314454,-1.5097657 v -0.00195 c 0.215493,-0.5772141 0.503082,-1.1050708 0.863281,-1.5878906 0.58193,-0.7810119 1.076866,-1.0625 1.458984,-1.0625 0.115365,0 0.271381,0.017254 0.458985,0.060547 l 0.0059,0.00195 h 0.0059 c 0.454981,0.092681 0.829379,0.1576612 1.132813,0.1933594 H 78 c 0.313406,0.035817 0.661944,0.052734 1.048828,0.052734 h 6.544922 0.0098 c 0.737106,-0.026016 1.417187,-0.126451 2.041015,-0.3046876 l -0.0078,0.00391 c 0.217309,-0.057949 0.395146,-0.083984 0.527343,-0.083984 z"
           id="path86988" />
      </g>
    </g>
  </g>
</svg>
