<?xml version="1.0" encoding="UTF-8" standalone="no"?>
<!-- Created with Inkscape (http://www.inkscape.org/) -->

<svg
   width="72mm"
   height="21mm"
   viewBox="0 0 72 21"
   version="1.1"
   id="svg5"
   inkscape:version="1.1 (c68e22c387, 2021-05-23)"
   sodipodi:docname="Start.svg"
   xmlns:inkscape="http://www.inkscape.org/namespaces/inkscape"
   xmlns:sodipodi="http://sodipodi.sourceforge.net/DTD/sodipodi-0.dtd"
   xmlns="http://www.w3.org/2000/svg"
   xmlns:svg="http://www.w3.org/2000/svg">
  <sodipodi:namedview
     id="namedview7"
     pagecolor="#ffffff"
     bordercolor="#666666"
     borderopacity="1.0"
     inkscape:pageshadow="2"
     inkscape:pageopacity="0.0"
     inkscape:pagecheckerboard="true"
     inkscape:document-units="mm"
     showgrid="false"
     width="100mm"
     inkscape:zoom="0.72337262"
     inkscape:cx="-40.781195"
     inkscape:cy="561.95105"
     inkscape:window-width="1920"
     inkscape:window-height="1001"
     inkscape:window-x="-9"
     inkscape:window-y="-9"
     inkscape:window-maximized="1"
     inkscape:current-layer="layer1" />
  <defs
     id="defs2" />
  <g
     inkscape:label="Layer 1"
     inkscape:groupmode="layer"
     id="layer1">
    <g
       aria-label="START"
       id="startText"
       style="font-size:25.4px;line-height:1.25;fill:#ff0000;stroke-width:0.264583">
      <path
         d="m 9.5994153,14.046154 q 0,2.517676 -2.1208007,4.316016 -1.8603515,1.5875 -4.5268554,2.021582 -0.099219,0.0124 -0.1612305,0.0124 -0.2852539,0 -1.265039,-1.736328 -0.97978516,-1.748731 -0.97978516,-2.133203 0,-0.136426 0.18603516,-0.173633 1.7983398,-0.409277 2.38125,-0.694531 1.2898437,-0.644922 1.2898437,-1.909961 0,-0.806152 -0.8433594,-1.79834 Q 2.0959975,10.263439 1.9719741,10.077404 1.1162123,8.7875604 1.1162123,7.2248651 q 0,-2.2696288 2.0959961,-3.7703124 1.7115234,-1.2402344 4.2043945,-1.6123047 0.1364258,-0.012402 0.2108398,-0.012402 0.1860352,0 0.2976563,0.2976562 0.3224609,0.9053711 1.5006835,3.2742187 0.037207,0.074414 0.037207,0.1240235 0,0.2108398 -0.2232422,0.2108398 -0.099219,0 -0.3348633,-0.037207 -0.2356445,-0.037207 -0.359668,-0.037207 -0.8929687,0 -1.5626952,0.4092773 -0.8061524,0.4712891 -0.8061524,1.3146484 0,0.756543 0.8929688,1.8603515 1.5750976,1.9843749 1.6495117,2.0835939 0.8805663,1.364258 0.8805663,2.716113 z"
         style="font-family:'Berlin Sans FB Demi';-inkscape-font-specification:'Berlin Sans FB Demi'"
         id="path32551" />
      <path
         d="m 23.738087,6.1458613 q 0,0.2480468 -0.272852,0.2480468 -0.471289,0 -3.733105,-0.1860351 -0.07441,3.1377929 -0.07441,4.378027 0,1.463477 0.111621,4.402832 0.124023,2.939356 0.124023,4.402832 0,0.235645 -0.111621,0.297656 -0.03721,0.02481 -0.347265,0.06201 -0.744141,0.09922 -2.182813,0.09922 -1.599902,0 -2.244824,-0.09922 -0.347266,-0.06201 -0.347266,-0.384473 0,-1.463476 0.124024,-4.390429 0.124023,-2.926953 0.124023,-4.39043 0,-0.9673825 -0.09922,-4.3160153 -2.480468,0.2480469 -3.956347,0.2480469 -0.198438,0 -0.198438,-0.1240235 0,-0.1612304 0.173633,-0.9549804 0.198438,-0.8681641 0.223242,-1.0541992 0.03721,-0.5829102 0.08682,-1.1658203 0.08682,-0.9301758 0.297656,-0.9301758 0.0248,0 0.173633,0.012402 2.009179,0.2604492 5.940722,0.2604492 1.116211,0 4.117578,-0.2356446 1.612305,-0.1240234 1.624707,-0.1240234 0.248047,0 0.285254,0.037207 0.03721,0.024805 0.04961,0.2356446 0,0.3348632 -0.02481,0.9301757 -0.02481,0.6573242 -0.02481,0.9301758 0,0.3100586 0.07441,0.9177734 0.08682,0.5953125 0.08682,0.8929688 z"
         style="font-family:'Berlin Sans FB Demi';-inkscape-font-specification:'Berlin Sans FB Demi'"
         id="path32553" />
      <path
         d="m 41.42383,19.441174 q 0,0.223242 -0.310059,0.310058 -0.37207,0.09922 -2.306835,0.09922 -1.773536,0 -2.282032,-0.09922 -0.421679,-0.08682 -0.5333,-0.558105 -0.42168,-1.785938 -0.657325,-1.909961 -0.198437,-0.08682 -3.323828,-0.08682 -2.108398,0 -2.244824,0.111621 -0.21084,0.198438 -0.471289,1.327051 -0.235644,1.029395 -0.570508,1.116211 -0.421679,0.09922 -2.827734,0.09922 -1.897559,0 -1.897559,-0.359668 0,-0.322461 2.80293,-7.925098 3.038574,-8.2227534 3.299023,-9.0413081 0.148829,-0.471289 0.347266,-0.471289 0.334863,0 1.029395,0.062012 0.706933,0.062012 1.054199,0.062012 0.334863,0 0.979785,-0.037207 0.657324,-0.049609 0.979785,-0.049609 0.235645,0 0.434082,0.4092774 0.607715,1.302246 3.54707,8.9296877 2.951758,7.67705 2.951758,8.011914 z M 32.630568,8.1426386 q -0.260449,0.5457031 -0.880566,2.3688474 -0.669726,1.934766 -0.669726,2.269629 0,0.223242 0.74414,0.248047 0.384473,0.02481 1.265039,0.02481 0.818555,0 0.905371,-0.198438 0.0248,-0.06201 0.0248,-0.173633 0,-0.409277 -0.570508,-2.257226 -0.558105,-1.7859377 -0.818555,-2.2820314 z"
         style="font-family:'Berlin Sans FB Demi';-inkscape-font-specification:'Berlin Sans FB Demi'"
         id="path32555" />
      <path
         d="m 57.472462,19.627209 q 0,0.08682 -0.248047,0.124023 -0.471289,0.07441 -2.368847,0.07441 -1.624707,0 -2.207618,-0.07441 -0.272851,-0.03721 -0.310058,-0.06201 -0.07441,-0.03721 -0.173633,-0.248046 -0.186035,-0.483692 -0.545703,-1.438672 -0.483691,-1.240235 -1.513086,-3.658692 -0.223242,-0.483691 -1.029394,-0.5333 0.37207,0.0248 -1.277442,0.0248 -0.186035,0 -0.186035,0.63252 0,0.843359 0.148828,2.517676 0.161231,1.674316 0.161231,2.517675 0,0.21084 -0.111622,0.248047 -0.173632,0.0124 -0.347265,0.0248 -0.731738,0.04961 -2.282031,0.04961 -1.773535,0 -2.133203,-0.07441 -0.359668,-0.07441 -0.359668,-0.384473 0,-1.364257 0.124023,-4.117578 0.136426,-2.75332 0.136426,-4.12998 0,-5.2461913 -0.235645,-8.1855467 l -0.0124,-0.1736328 q -0.0124,-0.2108399 0.384473,-0.2852539 0.409277,-0.074414 3.795117,-0.1488282 2.294433,-0.049609 3.658691,-0.049609 2.827734,0 4.613672,1.2774414 2.021582,1.4386718 2.021582,4.154785 0,1.8107422 -0.520899,2.8897465 -0.520898,1.079003 -1.922363,2.095996 -0.285254,0.198437 -0.285254,0.37207 0,-0.0124 1.513086,3.112988 1.513086,3.125391 1.513086,3.447852 z M 52.263478,8.5023065 q 0,-1.5130859 -0.992188,-2.095996 -0.768945,-0.4464844 -2.406054,-0.4464844 -1.178223,0 -1.252637,0.359668 -0.07441,0.4216796 -0.07441,2.4308593 0,0.2852539 0.0124,0.8433594 0.0124,0.5581052 0.0124,0.8309572 0,0.06201 0.396875,0.124023 0.756543,0.111621 1.5875,0.111621 2.716113,0 2.716113,-2.1580075 z"
         style="font-family:'Berlin Sans FB Demi';-inkscape-font-specification:'Berlin Sans FB Demi'"
         id="path32557" />
      <path
         d="m 70.95381,6.1458613 q 0,0.2480468 -0.272852,0.2480468 -0.471289,0 -3.733105,-0.1860351 -0.07441,3.1377929 -0.07441,4.378027 0,1.463477 0.111621,4.402832 0.124023,2.939356 0.124023,4.402832 0,0.235645 -0.111621,0.297656 -0.03721,0.02481 -0.347265,0.06201 -0.744141,0.09922 -2.182813,0.09922 -1.599902,0 -2.244824,-0.09922 -0.347266,-0.06201 -0.347266,-0.384473 0,-1.463476 0.124024,-4.390429 0.124023,-2.926953 0.124023,-4.39043 0,-0.9673825 -0.09922,-4.3160153 -2.480468,0.2480469 -3.956347,0.2480469 -0.198438,0 -0.198438,-0.1240235 0,-0.1612304 0.173633,-0.9549804 0.198438,-0.8681641 0.223242,-1.0541992 0.03721,-0.5829102 0.08682,-1.1658203 0.08682,-0.9301758 0.297656,-0.9301758 0.02481,0 0.173633,0.012402 2.009179,0.2604492 5.940722,0.2604492 1.116211,0 4.117578,-0.2356446 1.612305,-0.1240234 1.624707,-0.1240234 0.248047,0 0.285254,0.037207 0.03721,0.024805 0.04961,0.2356446 0,0.3348632 -0.02481,0.9301757 -0.02481,0.6573242 -0.02481,0.9301758 0,0.3100586 0.07441,0.9177734 0.08682,0.5953125 0.08682,0.8929688 z"
         style="font-family:'Berlin Sans FB Demi';-inkscape-font-specification:'Berlin Sans FB Demi'"
         id="path32559" />
    </g>
  </g>
</svg>
