<svg xmlns="http://www.w3.org/2000/svg" xmlns:xlink="http://www.w3.org/1999/xlink" xmlns:lucid="lucid" width="1016.48" height="461.17"><g transform="translate(-179.55555555555554 -59.5)" lucid:page-tab-id="0_0"><path d="M883.95 404.03H871c-.65 0-1.26-.38-1.52-.98l-18.14-38.9h-7.32c-.9 0-1.7-.75-1.7-1.67v-11.23c0-.92.8-1.68 1.7-1.68h16.15c.7 0 1.26.38 1.52.98l18.1 38.9h4.15c.9 0 1.68.75 1.68 1.73v11.17c0 .92-.77 1.68-1.68 1.68zm-11.9-3.43h10.16v-7.73h-3.5c-.64 0-1.25-.38-1.5-.98l-18.07-38.96h-13.38v7.8h6.67c.7 0 1.3.37 1.56.97z" stroke="#fff" stroke-opacity="0" fill="#d86613"/><path d="M848.8 404.03H835c-.9 0-1.68-.77-1.68-1.7 0-.28.05-.48.17-.72l14.45-30.26c.3-.6.87-.97 1.54-.97.66 0 1.23.33 1.53.94l6.9 14.32c.23.47.23.97 0 1.44l-7.55 16c-.3.6-.87.97-1.54.97zm-11.1-3.4h10.02l6.8-14.27-5.1-10.37z" stroke="#fff" stroke-opacity="0" fill="#d86613"/><path d="M860 420c-22.08 0-40-17.92-40-40s17.92-40 40-40 40 17.92 40 40-17.92 40-40 40zm0-76.56c-20.24 0-36.56 16.32-36.56 36.56 0 20.24 16.32 36.56 36.56 36.56 20.24 0 36.56-16.32 36.56-36.56 0-20.24-16.32-36.56-36.56-36.56z" stroke="#fff" stroke-opacity="0" fill="#d86613"/><use xlink:href="#a" transform="matrix(1,0,0,1,790,429) translate(15.15432098765433 17.77777777777778)"/><use xlink:href="#b" transform="matrix(1,0,0,1,790,429) translate(66.88271604938272 17.77777777777778)"/><use xlink:href="#c" transform="matrix(1,0,0,1,790,429) translate(27.469135802469133 44.44444444444444)"/><path d="M576.04 160c-10.83 0-28.1-2.46-28.3-9.1L540 93.7c-.14-.97.43-1.86 1.37-2.06.94-.14 1.88.47 2.1 1.43.8 3.28 13.65 7.86 32.64 7.86 19 0 31.87-4.58 32.66-7.86.22-.96 1.16-1.57 2.1-1.43.93.2 1.5 1.1 1.37 2.05l-7.87 57.2c0 2.26-2.1 4.18-6 5.75-1.8.68-3.4 1.16-5.27 1.57-5.94 1.3-11 1.78-17.06 1.78zm-31.92-61.67l6.93 52.3v.2c0 2.06 9.75 5.82 24.92 5.82 5.78.07 10.62-.48 16.25-1.64 1.74-.4 3.18-.88 4.84-1.56 3.1-1.23 3.83-2.33 3.83-2.67v-.2l7-52.23c-6.58 3.9-19.8 6-31.93 6-12.13 0-25.28-2.1-31.85-6z" stroke="#fff" stroke-opacity="0" fill="#3f8624"/><path d="M576.06 104.32c-16.15 0-34.25-3.64-35.98-10.4V92.98v-.23c0-7.52 19.03-12.77 36.12-12.77 17.1 0 35.98 5.25 35.98 12.77V93l-.07.7v.2c-1.87 6.77-19.97 10.42-36.04 10.42zm-32.67-11.2c1.08 3.3 13.84 7.8 32.66 7.8 18.82 0 31.58-4.5 32.66-7.8v-.45c-.22-3.3-13.63-9.27-32.66-9.27-19.04 0-32.52 5.96-32.74 9.27zM612.23 127.86c-8.07 0-25.83-8-36.92-13.46l1.5-3.06c15.3 7.53 33.36 14.5 36.46 13.18-.24-.48-1.4-2.02-6.83-4.97l-.24-.16 1.68-2.98.25.17c5.47 2.98 8.07 5.3 8.53 7.5.16.93-.08 1.83-.7 2.57-1.04.95-2.32 1.36-3.73 1.2z" stroke="#fff" stroke-opacity="0" fill="#3f8624"/><path d="M576.05 116.6c-2.03 0-3.7-1.66-3.7-3.7s1.67-3.7 3.7-3.7c2.04 0 3.7 1.66 3.7 3.7s-1.66 3.7-3.7 3.7zm0-4c-.17 0-.3.14-.3.3 0 .33.6.33.6 0v-.04c0-.16-.13-.28-.3-.28z" stroke="#fff" stroke-opacity="0" fill="#3f8624"/><use xlink:href="#d" transform="matrix(1,0,0,1,510,169) translate(18.561728395061735 17.77777777777778)"/><use xlink:href="#e" transform="matrix(1,0,0,1,510,169) translate(80.2283950617284 17.77777777777778)"/><use xlink:href="#f" transform="matrix(1,0,0,1,510,169) translate(28.438271604938272 44.44444444444444)"/><path d="M518.35 320h120v120h-120V320z" stroke="#fff" stroke-opacity="0" fill="#693cc5"/><path d="M595.96 418.42c-.36 0-.65-.15-.94-.3-.43-.3-.67-.77-.67-1.3v-73.63c0-.55.3-1.08.77-1.4.48-.3 1.08-.3 1.6-.07l20.8 10.22c.56.23.9.77.9 1.38v56.56c.02.76-.4 1.37-1.1 1.6l-20.8 6.92h-.56zm1.62-72.62v68.78l17.6-5.84v-54.4zM560.74 418.42h-.5l-20.8-6.92c-.68-.23-1.12-.92-1.1-1.6v-56.57c0-.6.34-1.15.9-1.38l20.8-10.22c.53-.23 1.1-.23 1.6.08.5.3.76.85.76 1.4v73.6c0 .54-.24 1-.67 1.3-.3.24-.6.32-1 .32zm-19.2-9.6l17.6 5.83V345.8l-17.6 8.6z" stroke="#fff" stroke-opacity="0" fill="#fff"/><path d="M594.35 364h-4.8v-3.2h4.8zm-9.6 0h-4.8v-3.2h4.8zm-9.6 0h-4.8v-3.2h4.8zm-9.6 0h-4.8v-3.2h4.8zM594.35 399.2h-4.8V396h4.8zm-9.6 0h-4.8V396h4.8zm-9.6 0h-4.8V396h4.8zm-9.6 0h-4.8V396h4.8zM571.33 385.5l-6.02-5.13c-.66-.57-.74-1.6-.17-2.26l.18-.17 6-5.13 2.1 2.43-4.6 3.97 4.6 3.92zM585.4 385.5l-2.1-2.42 4.58-3.88-4.6-3.9 2.1-2.5 6 5.12c.68.57.76 1.6.2 2.26-.07.06-.12.12-.2.17z" stroke="#fff" stroke-opacity="0" fill="#fff"/><path d="M573.64 388.87l6.36-18.8 3.03 1.03-6.35 18.8-3.04-1.03z" stroke="#fff" stroke-opacity="0" stroke-width=".32" fill="#fff"/><use xlink:href="#a" transform="matrix(1,0,0,1,488.35,449) translate(14.166666666666671 17.77777777777778)"/><use xlink:href="#g" transform="matrix(1,0,0,1,488.35,449) translate(65.89506172839506 17.77777777777778)"/><use xlink:href="#h" transform="matrix(1,0,0,1,488.35,449) translate(130.03086419753086 17.77777777777778)"/><use xlink:href="#i" transform="matrix(1,0,0,1,488.35,449) translate(46.2037037037037 44.44444444444444)"/><path d="M220 200h120v120H220V200z" stroke="#fff" stroke-opacity="0" fill="#693cc5"/><path d="M293.82 297.07l-2.85-1.5c1.6-3.02 2.7-5.73 3.64-9.04l3.1.9c-1.03 3.54-2.17 6.4-3.88 9.64zm2.98-29.3c-.57-9.4-3.23-17.23-8.43-25.06l2.66-1.72c5.55 8.28 8.37 16.64 8.97 26.58zm-21.1-38.6c-2.45-1.82-4.67-3.18-7.4-4.53l1.46-2.86c2.92 1.43 5.26 2.86 7.86 4.8zM288.8 271.84c-5.3-5.27-10.82-8.73-17.87-11.2l1-3.04c7.5 2.63 13.38 6.3 19.03 11.92zM302 290.94c-.6-1.6-1.28-3.07-2.02-4.56l2.87-1.42c.83 1.65 1.46 3.08 2.13 4.8z" stroke="#fff" stroke-opacity="0" fill="#fff"/><path d="M292.9 297.84l-1-3.02c4.03-1.37 7.24-3.1 10.6-5.72l1.96 2.53c-3.66 2.85-7.15 4.73-11.55 6.2zM242.04 259.2l-.73-3.1c3.75-.92 7-1.35 10.85-1.43l.07 3.2c-3.6.08-6.66.47-10.18 1.33zM268.3 249.02l-2.7-1.75c2.47-4 5.06-7.1 8.6-10.23l2.1 2.42c-3.3 2.92-5.7 5.8-8 9.56zM292.08 230.05l-1.1-3c2.55-.96 4.76-1.6 7.42-2.12l.6 3.2c-2.5.47-4.55 1.04-6.92 1.92zM260.4 294.4c-2.75-6.38-4-12.25-4.1-19.2.05-2.67.34-4.95.98-7.54.1-.57.24-1.14.35-1.74l3.2.63c-.1.6-.23 1.16-.35 1.76-.6 2.38-.87 4.45-.93 6.9.08 6.53 1.24 12.05 3.8 18.06z" stroke="#fff" stroke-opacity="0" fill="#fff"/><path d="M280 300c-22.08 0-40-17.94-40-39.97 0-.88 0-1.6.08-2.5 1.04-17.05 12.08-31 28.48-35.87 10.8-3.2 21.2-2.1 30.96 3.44 19.28 10.8 26.16 35.17 15.36 54.47-2.72 4.9-5.92 8.65-10.4 12.1-7.36 5.6-15.2 8.33-24.48 8.33zm0-76.82c-3.76 0-6.96.48-10.48 1.6-15.12 4.57-25.28 17.3-26.24 33 0 .8-.08 1.53-.08 2.25 0 20.26 16.48 36.77 36.8 36.77 4.24 0 7.84-.56 11.84-2 4.08-1.37 7.28-3.05 10.64-5.7 9.36-7.2 14.32-17.3 14.32-29.07 0-20.35-16.48-36.85-36.8-36.85z" stroke="#fff" stroke-opacity="0" fill="#fff"/><path d="M283.9 241.5c-3.92 0-7.1-3.2-7.1-7.1 0-3.9 3.18-7.1 7.1-7.1 3.9 0 7.08 3.2 7.08 7.1 0 3.93-3.17 7.1-7.08 7.1zm0-10.97c-2.15 0-3.9 1.74-3.9 3.88 0 2.17 1.75 3.9 3.9 3.9 2.13 0 3.87-1.73 3.87-3.9 0-2.13-1.74-3.87-3.88-3.87zM262.06 263.8c-3.9 0-7.08-3.17-7.08-7.08 0-3.9 3.17-7.1 7.08-7.1 3.92 0 7.1 3.2 7.1 7.1-.02 3.9-3.18 7.07-7.1 7.1zm0-10.96c-2.14 0-3.88 1.74-3.88 3.88 0 2.14 1.74 3.88 3.88 3.88 2.14 0 3.9-1.74 3.9-3.88v-.03c0-2.16-1.75-3.9-3.9-3.9zM297.25 284.32c-3.92 0-7.1-3.16-7.1-7.07-.02-3.92 3.16-7.1 7.07-7.1 3.9-.02 7.1 3.16 7.1 7.07v.03c0 3.9-3.16 7.07-7.07 7.07zm0-10.96h-.02c-2.14 0-3.88 1.75-3.88 3.9 0 2.14 1.74 3.87 3.88 3.87 2.14 0 3.9-1.73 3.9-3.88 0-2.14-1.74-3.9-3.88-3.9z" stroke="#fff" stroke-opacity="0" fill="#fff"/><use xlink:href="#j" transform="matrix(1,0,0,1,190,329) translate(10.555555555555557 17.77777777777778)"/><use xlink:href="#k" transform="matrix(1,0,0,1,190,329) translate(77.09876543209876 17.77777777777778)"/><use xlink:href="#l" transform="matrix(1,0,0,1,190,329) translate(121.48148148148148 17.77777777777778)"/><path d="M341 260h94.78a6 6 0 0 0 6-6V126a6 6 0 0 1 6-6h77.27" stroke="#5e5e5e" stroke-width="2" fill="none"/><path d="M341.03 260.98H340v-1.96h1.03z" stroke="#5e5e5e" stroke-width=".05" fill="#5e5e5e"/><path d="M540.32 120l-14.27 4.64v-9.28z" stroke="#5e5e5e" stroke-width="2" fill="#5e5e5e"/><path d="M341 260h82.18a6 6 0 0 1 6 6v108a6 6 0 0 0 6 6h64.67" stroke="#5e5e5e" stroke-width="2" fill="none"/><path d="M341.03 260.98H340v-1.96h1.03z" stroke="#5e5e5e" stroke-width=".05" fill="#5e5e5e"/><path d="M515.1 380l-14.25 4.63v-9.26z" stroke="#5e5e5e" stroke-width="2" fill="#5e5e5e"/><path d="M694.2 380.98h-54.85v-1.96h54.84zm107.3 0h-37.34v-1.96h37.34z" stroke="#5e5e5e" stroke-width=".05" fill="#5e5e5e"/><path d="M639.38 380.98h-1.03v-1.96h1.03z" fill="#5e5e5e"/><path stroke="#5e5e5e" stroke-width=".05" fill="#5e5e5e"/><path d="M816.76 380l-14.26 4.63v-9.26z" fill="#5e5e5e"/><path d="M819.92 380l-18.4 5.98v-11.96zm-16.45 3.3l10.14-3.3-10.13-3.3z" stroke="#5e5e5e" stroke-width=".05" fill="#5e5e5e"/><use xlink:href="#m" transform="matrix(1,0,0,1,694.1873456790123,369.3333333333333) translate(0 14.222222222222223)"/><path d="M934.3 380.98H901v-1.96h33.3zm128.92 0h-35.3v-1.96h35.3z" stroke="#5e5e5e" stroke-width=".05" fill="#5e5e5e"/><path d="M901.03 380.98h-1.1l.07-.98-.03-.98h1.06z" fill="#5e5e5e"/><path stroke="#5e5e5e" stroke-width=".05" fill="#5e5e5e"/><path d="M1078.5 380l-14.28 4.63v-9.26z" fill="#5e5e5e"/><path d="M1081.65 380l-18.4 5.98v-11.96zm-16.45 3.3l10.14-3.3-10.14-3.3z" stroke="#5e5e5e" stroke-width=".05" fill="#5e5e5e"/><use xlink:href="#n" transform="matrix(1,0,0,1,934.299935578601,358.6666666666667) translate(0 14.222222222222223)"/><use xlink:href="#o" transform="matrix(1,0,0,1,934.299935578601,358.6666666666667) translate(0 35.55555555555556)"/><use xlink:href="#p" transform="matrix(1,0,0,1,934.299935578601,358.6666666666667) translate(44.296296296296305 35.55555555555556)"/><path d="M1121.7 412.02h-38.3c-.9 0-1.67-.74-1.67-1.7v-49.48c0-.95.76-1.7 1.68-1.7h51.02c.92 0 1.7.75 1.7 1.7v15.97h-3.4v-14.27h-47.62v46.1h36.6zM1134.44 356.17h-51.1c-.93 0-1.7-.78-1.7-1.7 0-.37.12-.7.34-.98l9.15-12.8c.33-.44.76-.7 1.36-.7h32.85c.54 0 1.03.26 1.36.7l9.1 12.8c.55.75.4 1.8-.38 2.35-.32.22-.65.32-.98.32zm-47.78-3.4h44.46l-6.65-9.36h-31.16z" stroke="#fff" stroke-opacity="0" fill="#cd2264"/><path d="M1120.1 400.85h-22.32c-.92 0-1.7-.77-1.7-1.7v-28.72c0-.93.78-1.7 1.7-1.7h22.32c.93 0 1.7.77 1.7 1.7v28.72c0 .93-.77 1.7-1.7 1.7zm-20.62-3.4h18.92v-25.3h-18.92z" stroke="#fff" stroke-opacity="0" fill="#cd2264"/><path d="M1102.5 376.7h12.74v3.4h-12.75v-3.4zM1102.5 383.08h12.74v3.4h-12.75v-3.4zM1102.5 389.46h12.74v3.4h-12.75v-3.4zM1156.62 420h-28.64c-.93 0-1.7-.76-1.7-1.7v-23.94c0-.47.16-.88.5-1.2.34-.33.72-.5 1.2-.5h28.67c.93 0 1.7.77 1.7 1.7v23.94c0 .94-.77 1.7-1.7 1.7h-.03zm-26.94-3.42h25.24v-20.5h-25.24z" stroke="#fff" stroke-opacity="0" fill="#cd2264"/><path d="M1151.96 394.57h-3.4V388c.12-3.57-2.64-6.6-6.22-6.8-3.6.17-6.4 3.2-6.27 6.8v6.64h-3.4v-6.6c-.13-5.5 4.2-10.07 9.66-10.22 5.46.2 9.75 4.74 9.6 10.2zM1142.3 408.27c-2.62 0-4.75-2.13-4.75-4.76 0-2.64 2.13-4.78 4.76-4.78 2.64-.16 4.9 1.86 5.06 4.5.16 2.63-1.85 4.9-4.48 5.05h-.57zm0-6.14c-.64.07-1.14.56-1.2 1.22-.1.75.46 1.43 1.2 1.52.38 0 .7-.13.97-.4.28-.26.42-.6.42-.98s-.14-.7-.4-.98c-.28-.27-.6-.4-1-.4zM1142.3 406.57v6.6" stroke="#fff" stroke-opacity="0" fill="#cd2264"/><path d="M1140.6 406.57h3.4v6.6h-3.4v-6.6z" stroke="#fff" stroke-opacity="0" fill="#cd2264"/><path d="M1083.36 354.23h50.94v56.07h-50.94v-56.07z" stroke="#fff" stroke-opacity="0" stroke-width=".28" fill="#fff" fill-opacity="0"/><path d="M1141.8 379.62h.87c5.08 0 7.62 2.86 7.62 8.57v1.4c0 5.7-2.55 8.56-7.63 8.56h-.87c-5.07 0-7.6-2.85-7.6-8.56v-1.4c0-5.72 2.53-8.58 7.6-8.58z" stroke="#fff" stroke-opacity="0" stroke-width=".18" fill="#fff" fill-opacity="0"/><g><use xlink:href="#q" transform="matrix(1,0,0,1,1051.65,429) translate(13.65432098765433 17.77777777777778)"/><use xlink:href="#r" transform="matrix(1,0,0,1,1051.65,429) translate(65.38271604938272 17.77777777777778)"/><use xlink:href="#s" transform="matrix(1,0,0,1,1051.65,429) translate(16.74074074074074 44.44444444444444)"/></g><defs><path fill="#333" d="M197 0v-115H63V0H30v-248h33v105h134v-105h34V0h-34" id="t"/><path fill="#333" d="M24-231v-30h32v30H24zM24 0v-190h32V0H24" id="u"/><path fill="#333" d="M177-190C167-65 218 103 67 71c-23-6-38-20-44-43l32-5c15 47 100 32 89-28v-30C133-14 115 1 83 1 29 1 15-40 15-95c0-56 16-97 71-98 29-1 48 16 59 35 1-10 0-23 2-32h30zM94-22c36 0 50-32 50-73 0-42-14-75-50-75-39 0-46 34-46 75s6 73 46 73" id="v"/><path fill="#333" d="M106-169C34-169 62-67 57 0H25v-261h32l-1 103c12-21 28-36 61-36 89 0 53 116 60 194h-32v-121c2-32-8-49-39-48" id="w"/><g id="a"><use transform="matrix(0.06172839506172839,0,0,0.06172839506172839,0,0)" xlink:href="#t"/><use transform="matrix(0.06172839506172839,0,0,0.06172839506172839,15.987654320987653,0)" xlink:href="#u"/><use transform="matrix(0.06172839506172839,0,0,0.06172839506172839,20.864197530864196,0)" xlink:href="#v"/><use transform="matrix(0.06172839506172839,0,0,0.06172839506172839,33.20987654320987,0)" xlink:href="#w"/></g><path fill="#333" d="M185-189c-5-48-123-54-124 2 14 75 158 14 163 119 3 78-121 87-175 55-17-10-28-26-33-46l33-7c5 56 141 63 141-1 0-78-155-14-162-118-5-82 145-84 179-34 5 7 8 16 11 25" id="x"/><path fill="#333" d="M96-169c-40 0-48 33-48 73s9 75 48 75c24 0 41-14 43-38l32 2c-6 37-31 61-74 61-59 0-76-41-82-99-10-93 101-131 147-64 4 7 5 14 7 22l-32 3c-4-21-16-35-41-35" id="y"/><path fill="#333" d="M100-194c62-1 85 37 85 99 1 63-27 99-86 99S16-35 15-95c0-66 28-99 85-99zM99-20c44 1 53-31 53-75 0-43-8-75-51-75s-53 32-53 75 10 74 51 75" id="z"/><path fill="#333" d="M114-163C36-179 61-72 57 0H25l-1-190h30c1 12-1 29 2 39 6-27 23-49 58-41v29" id="A"/><path fill="#333" d="M100-194c63 0 86 42 84 106H49c0 40 14 67 53 68 26 1 43-12 49-29l28 8c-11 28-37 45-77 45C44 4 14-33 15-96c1-61 26-98 85-98zm52 81c6-60-76-77-97-28-3 7-6 17-6 28h103" id="B"/><g id="b"><use transform="matrix(0.06172839506172839,0,0,0.06172839506172839,0,0)" xlink:href="#x"/><use transform="matrix(0.06172839506172839,0,0,0.06172839506172839,14.814814814814813,0)" xlink:href="#y"/><use transform="matrix(0.06172839506172839,0,0,0.06172839506172839,25.925925925925924,0)" xlink:href="#z"/><use transform="matrix(0.06172839506172839,0,0,0.06172839506172839,38.2716049382716,0)" xlink:href="#A"/><use transform="matrix(0.06172839506172839,0,0,0.06172839506172839,45.61728395061728,0)" xlink:href="#B"/></g><path fill="#333" d="M63-220v92h138v28H63V0H30v-248h175v28H63" id="C"/><path fill="#333" d="M84 4C-5 8 30-112 23-190h32v120c0 31 7 50 39 49 72-2 45-101 50-169h31l1 190h-30c-1-10 1-25-2-33-11 22-28 36-60 37" id="D"/><path fill="#333" d="M117-194c89-4 53 116 60 194h-32v-121c0-31-8-49-39-48C34-167 62-67 57 0H25l-1-190h30c1 10-1 24 2 32 11-22 29-35 61-36" id="E"/><path fill="#333" d="M59-47c-2 24 18 29 38 22v24C64 9 27 4 27-40v-127H5v-23h24l9-43h21v43h35v23H59v120" id="F"/><g id="c"><use transform="matrix(0.06172839506172839,0,0,0.06172839506172839,0,0)" xlink:href="#C"/><use transform="matrix(0.06172839506172839,0,0,0.06172839506172839,13.518518518518517,0)" xlink:href="#D"/><use transform="matrix(0.06172839506172839,0,0,0.06172839506172839,25.864197530864196,0)" xlink:href="#E"/><use transform="matrix(0.06172839506172839,0,0,0.06172839506172839,38.20987654320987,0)" xlink:href="#y"/><use transform="matrix(0.06172839506172839,0,0,0.06172839506172839,49.32098765432099,0)" xlink:href="#F"/><use transform="matrix(0.06172839506172839,0,0,0.06172839506172839,55.49382716049383,0)" xlink:href="#u"/><use transform="matrix(0.06172839506172839,0,0,0.06172839506172839,60.370370370370374,0)" xlink:href="#z"/><use transform="matrix(0.06172839506172839,0,0,0.06172839506172839,72.71604938271605,0)" xlink:href="#E"/></g><path fill="#333" d="M141-36C126-15 110 5 73 4 37 3 15-17 15-53c-1-64 63-63 125-63 3-35-9-54-41-54-24 1-41 7-42 31l-33-3c5-37 33-52 76-52 45 0 72 20 72 64v82c-1 20 7 32 28 27v20c-31 9-61-2-59-35zM48-53c0 20 12 33 32 33 41-3 63-29 60-74-43 2-92-5-92 41" id="G"/><g id="d"><use transform="matrix(0.06172839506172839,0,0,0.06172839506172839,0,0)" xlink:href="#x"/><use transform="matrix(0.06172839506172839,0,0,0.06172839506172839,14.814814814814813,0)" xlink:href="#F"/><use transform="matrix(0.06172839506172839,0,0,0.06172839506172839,20.98765432098765,0)" xlink:href="#G"/><use transform="matrix(0.06172839506172839,0,0,0.06172839506172839,33.33333333333333,0)" xlink:href="#F"/><use transform="matrix(0.06172839506172839,0,0,0.06172839506172839,39.50617283950617,0)" xlink:href="#u"/><use transform="matrix(0.06172839506172839,0,0,0.06172839506172839,44.382716049382715,0)" xlink:href="#y"/></g><g id="e"><use transform="matrix(0.06172839506172839,0,0,0.06172839506172839,0,0)" xlink:href="#x"/><use transform="matrix(0.06172839506172839,0,0,0.06172839506172839,14.814814814814813,0)" xlink:href="#u"/><use transform="matrix(0.06172839506172839,0,0,0.06172839506172839,19.691358024691354,0)" xlink:href="#F"/><use transform="matrix(0.06172839506172839,0,0,0.06172839506172839,25.864197530864192,0)" xlink:href="#B"/></g><path fill="#333" d="M205 0l-28-72H64L36 0H1l101-248h38L239 0h-34zm-38-99l-47-123c-12 45-31 82-46 123h93" id="H"/><path fill="#333" d="M101-234c-31-9-42 10-38 44h38v23H63V0H32v-167H5v-23h27c-7-52 17-82 69-68v24" id="I"/><path fill="#333" d="M135-143c-3-34-86-38-87 0 15 53 115 12 119 90S17 21 10-45l28-5c4 36 97 45 98 0-10-56-113-15-118-90-4-57 82-63 122-42 12 7 21 19 24 35" id="J"/><g id="f"><use transform="matrix(0.06172839506172839,0,0,0.06172839506172839,0,0)" xlink:href="#H"/><use transform="matrix(0.06172839506172839,0,0,0.06172839506172839,14.814814814814813,0)" xlink:href="#A"/><use transform="matrix(0.06172839506172839,0,0,0.06172839506172839,22.160493827160494,0)" xlink:href="#F"/><use transform="matrix(0.06172839506172839,0,0,0.06172839506172839,28.333333333333332,0)" xlink:href="#u"/><use transform="matrix(0.06172839506172839,0,0,0.06172839506172839,33.20987654320987,0)" xlink:href="#I"/><use transform="matrix(0.06172839506172839,0,0,0.06172839506172839,39.382716049382715,0)" xlink:href="#G"/><use transform="matrix(0.06172839506172839,0,0,0.06172839506172839,51.72839506172839,0)" xlink:href="#y"/><use transform="matrix(0.06172839506172839,0,0,0.06172839506172839,62.839506172839506,0)" xlink:href="#F"/><use transform="matrix(0.06172839506172839,0,0,0.06172839506172839,69.01234567901234,0)" xlink:href="#J"/></g><g id="g"><use transform="matrix(0.06172839506172839,0,0,0.06172839506172839,0,0)" xlink:href="#x"/><use transform="matrix(0.06172839506172839,0,0,0.06172839506172839,14.814814814814813,0)" xlink:href="#y"/><use transform="matrix(0.06172839506172839,0,0,0.06172839506172839,25.925925925925924,0)" xlink:href="#z"/><use transform="matrix(0.06172839506172839,0,0,0.06172839506172839,38.2716049382716,0)" xlink:href="#A"/><use transform="matrix(0.06172839506172839,0,0,0.06172839506172839,45.61728395061728,0)" xlink:href="#B"/></g><path fill="#333" d="M30-248c87 1 191-15 191 75 0 78-77 80-158 76V0H30v-248zm33 125c57 0 124 11 124-50 0-59-68-47-124-48v98" id="K"/><path fill="#333" d="M33 0v-248h34V0H33" id="L"/><g id="h"><use transform="matrix(0.06172839506172839,0,0,0.06172839506172839,0,0)" xlink:href="#H"/><use transform="matrix(0.06172839506172839,0,0,0.06172839506172839,14.814814814814813,0)" xlink:href="#K"/><use transform="matrix(0.06172839506172839,0,0,0.06172839506172839,29.629629629629626,0)" xlink:href="#L"/></g><path fill="#333" d="M143 4C61 4 22-44 18-125c-5-107 100-154 193-111 17 8 29 25 37 43l-32 9c-13-25-37-40-76-40-61 0-88 39-88 99 0 61 29 100 91 101 35 0 62-11 79-27v-45h-74v-28h105v86C228-13 192 4 143 4" id="M"/><path fill="#333" d="M206 0h-36l-40-164L89 0H53L-1-190h32L70-26l43-164h34l41 164 42-164h31" id="N"/><path fill="#333" d="M179-190L93 31C79 59 56 82 12 73V49c39 6 53-20 64-50L1-190h34L92-34l54-156h33" id="O"/><g id="i"><use transform="matrix(0.06172839506172839,0,0,0.06172839506172839,0,0)" xlink:href="#M"/><use transform="matrix(0.06172839506172839,0,0,0.06172839506172839,17.28395061728395,0)" xlink:href="#G"/><use transform="matrix(0.06172839506172839,0,0,0.06172839506172839,29.629629629629626,0)" xlink:href="#F"/><use transform="matrix(0.06172839506172839,0,0,0.06172839506172839,35.80246913580247,0)" xlink:href="#B"/><use transform="matrix(0.06172839506172839,0,0,0.06172839506172839,48.148148148148145,0)" xlink:href="#N"/><use transform="matrix(0.06172839506172839,0,0,0.06172839506172839,64.1358024691358,0)" xlink:href="#G"/><use transform="matrix(0.06172839506172839,0,0,0.06172839506172839,76.48148148148148,0)" xlink:href="#O"/></g><path fill="#333" d="M115-194c53 0 69 39 70 98 0 66-23 100-70 100C84 3 66-7 56-30L54 0H23l1-261h32v101c10-23 28-34 59-34zm-8 174c40 0 45-34 45-75 0-40-5-75-45-74-42 0-51 32-51 76 0 43 10 73 51 73" id="P"/><path fill="#333" d="M24 0v-261h32V0H24" id="Q"/><g id="j"><use transform="matrix(0.06172839506172839,0,0,0.06172839506172839,0,0)" xlink:href="#K"/><use transform="matrix(0.06172839506172839,0,0,0.06172839506172839,14.814814814814813,0)" xlink:href="#D"/><use transform="matrix(0.06172839506172839,0,0,0.06172839506172839,27.160493827160494,0)" xlink:href="#P"/><use transform="matrix(0.06172839506172839,0,0,0.06172839506172839,39.50617283950617,0)" xlink:href="#Q"/><use transform="matrix(0.06172839506172839,0,0,0.06172839506172839,44.382716049382715,0)" xlink:href="#u"/><use transform="matrix(0.06172839506172839,0,0,0.06172839506172839,49.25925925925926,0)" xlink:href="#y"/></g><g id="k"><use transform="matrix(0.06172839506172839,0,0,0.06172839506172839,0,0)" xlink:href="#x"/><use transform="matrix(0.06172839506172839,0,0,0.06172839506172839,14.814814814814813,0)" xlink:href="#u"/><use transform="matrix(0.06172839506172839,0,0,0.06172839506172839,19.691358024691354,0)" xlink:href="#F"/><use transform="matrix(0.06172839506172839,0,0,0.06172839506172839,25.864197530864192,0)" xlink:href="#B"/></g><path fill="#333" d="M212-179c-10-28-35-45-73-45-59 0-87 40-87 99 0 60 29 101 89 101 43 0 62-24 78-52l27 14C228-24 195 4 139 4 59 4 22-46 18-125c-6-104 99-153 187-111 19 9 31 26 39 46" id="R"/><path fill="#333" d="M30-248c118-7 216 8 213 122C240-48 200 0 122 0H30v-248zM63-27c89 8 146-16 146-99s-60-101-146-95v194" id="S"/><path fill="#333" d="M190 0L58-211 59 0H30v-248h39L202-35l-2-213h31V0h-41" id="T"/><g id="l"><use transform="matrix(0.06172839506172839,0,0,0.06172839506172839,0,0)" xlink:href="#R"/><use transform="matrix(0.06172839506172839,0,0,0.06172839506172839,15.987654320987653,0)" xlink:href="#S"/><use transform="matrix(0.06172839506172839,0,0,0.06172839506172839,31.975308641975307,0)" xlink:href="#T"/></g><path fill="#333" d="M136-208V0H84v-208H4v-40h212v40h-80" id="U"/><path fill="#333" d="M135-150c-39-12-60 13-60 57V0H25l-1-190h47c2 13-1 29 3 40 6-28 27-53 61-41v41" id="V"/><path fill="#333" d="M25-224v-37h50v37H25zM25 0v-190h50V0H25" id="W"/><path fill="#333" d="M195-6C206 82 75 100 31 46c-4-6-6-13-8-21l49-6c3 16 16 24 34 25 40 0 42-37 40-79-11 22-30 35-61 35-53 0-70-43-70-97 0-56 18-96 73-97 30 0 46 14 59 34l2-30h47zm-90-29c32 0 41-27 41-63 0-35-9-62-40-62-32 0-39 29-40 63 0 36 9 62 39 62" id="X"/><path fill="#333" d="M185-48c-13 30-37 53-82 52C43 2 14-33 14-96s30-98 90-98c62 0 83 45 84 108H66c0 31 8 55 39 56 18 0 30-7 34-22zm-45-69c5-46-57-63-70-21-2 6-4 13-4 21h74" id="Y"/><path fill="#333" d="M137-138c1-29-70-34-71-4 15 46 118 7 119 86 1 83-164 76-172 9l43-7c4 19 20 25 44 25 33 8 57-30 24-41C81-84 22-81 20-136c-2-80 154-74 161-7" id="Z"/><g id="m"><use transform="matrix(0.04938271604938272,0,0,0.04938271604938272,0,0)" xlink:href="#U"/><use transform="matrix(0.04938271604938272,0,0,0.04938271604938272,9.82716049382716,0)" xlink:href="#V"/><use transform="matrix(0.04938271604938272,0,0,0.04938271604938272,16.74074074074074,0)" xlink:href="#W"/><use transform="matrix(0.04938271604938272,0,0,0.04938271604938272,21.679012345679013,0)" xlink:href="#X"/><use transform="matrix(0.04938271604938272,0,0,0.04938271604938272,32.49382716049383,0)" xlink:href="#X"/><use transform="matrix(0.04938271604938272,0,0,0.04938271604938272,43.308641975308646,0)" xlink:href="#Y"/><use transform="matrix(0.04938271604938272,0,0,0.04938271604938272,53.18518518518519,0)" xlink:href="#V"/><use transform="matrix(0.04938271604938272,0,0,0.04938271604938272,60.09876543209877,0)" xlink:href="#Z"/></g><path fill="#333" d="M24-248c93 1 206-16 204 79-1 75-69 88-152 82V0H24v-248zm52 121c47 0 100 7 100-41 0-47-54-39-100-39v80" id="aa"/><path fill="#333" d="M115-3C79 11 28 4 28-45v-112H4v-33h27l15-45h31v45h36v33H77v99c-1 23 16 31 38 25v30" id="ab"/><g id="n"><use transform="matrix(0.04938271604938272,0,0,0.04938271604938272,0,0)" xlink:href="#aa"/><use transform="matrix(0.04938271604938272,0,0,0.04938271604938272,11.851851851851853,0)" xlink:href="#Y"/><use transform="matrix(0.04938271604938272,0,0,0.04938271604938272,21.7283950617284,0)" xlink:href="#V"/><use transform="matrix(0.04938271604938272,0,0,0.04938271604938272,28.64197530864198,0)" xlink:href="#Z"/><use transform="matrix(0.04938271604938272,0,0,0.04938271604938272,38.518518518518526,0)" xlink:href="#W"/><use transform="matrix(0.04938271604938272,0,0,0.04938271604938272,43.4567901234568,0)" xlink:href="#Z"/><use transform="matrix(0.04938271604938272,0,0,0.04938271604938272,53.333333333333336,0)" xlink:href="#ab"/><use transform="matrix(0.04938271604938272,0,0,0.04938271604938272,59.209876543209894,0)" xlink:href="#Z"/></g><path fill="#333" d="M186 0v-106H76V0H24v-248h52v99h110v-99h50V0h-50" id="ac"/><path fill="#333" d="M114-157C55-157 80-60 75 0H25v-261h50l-1 109c12-26 28-41 61-42 86-1 58 113 63 194h-50c-7-57 23-157-34-157" id="ad"/><g id="o"><use transform="matrix(0.04938271604938272,0,0,0.04938271604938272,0,0)" xlink:href="#ac"/><use transform="matrix(0.04938271604938272,0,0,0.04938271604938272,12.790123456790125,0)" xlink:href="#W"/><use transform="matrix(0.04938271604938272,0,0,0.04938271604938272,17.7283950617284,0)" xlink:href="#X"/><use transform="matrix(0.04938271604938272,0,0,0.04938271604938272,28.54320987654322,0)" xlink:href="#ad"/></g><path fill="#333" d="M169-182c-1-43-94-46-97-3 18 66 151 10 154 114 3 95-165 93-204 36-6-8-10-19-12-30l50-8c3 46 112 56 116 5-17-69-150-10-154-114-4-87 153-88 188-35 5 8 8 18 10 28" id="ae"/><path fill="#333" d="M190-63c-7 42-38 67-86 67-59 0-84-38-90-98-12-110 154-137 174-36l-49 2c-2-19-15-32-35-32-30 0-35 28-38 64-6 74 65 87 74 30" id="af"/><path fill="#333" d="M110-194c64 0 96 36 96 99 0 64-35 99-97 99-61 0-95-36-95-99 0-62 34-99 96-99zm-1 164c35 0 45-28 45-65 0-40-10-65-43-65-34 0-45 26-45 65 0 36 10 65 43 65" id="ag"/><g id="p"><use transform="matrix(0.04938271604938272,0,0,0.04938271604938272,0,0)" xlink:href="#ae"/><use transform="matrix(0.04938271604938272,0,0,0.04938271604938272,11.851851851851853,0)" xlink:href="#af"/><use transform="matrix(0.04938271604938272,0,0,0.04938271604938272,21.7283950617284,0)" xlink:href="#ag"/><use transform="matrix(0.04938271604938272,0,0,0.04938271604938272,32.543209876543216,0)" xlink:href="#V"/><use transform="matrix(0.04938271604938272,0,0,0.04938271604938272,39.4567901234568,0)" xlink:href="#Y"/></g><path d="M197 0v-115H63V0H30v-248h33v105h134v-105h34V0h-34" id="ah"/><path d="M24-231v-30h32v30H24zM24 0v-190h32V0H24" id="ai"/><path d="M177-190C167-65 218 103 67 71c-23-6-38-20-44-43l32-5c15 47 100 32 89-28v-30C133-14 115 1 83 1 29 1 15-40 15-95c0-56 16-97 71-98 29-1 48 16 59 35 1-10 0-23 2-32h30zM94-22c36 0 50-32 50-73 0-42-14-75-50-75-39 0-46 34-46 75s6 73 46 73" id="aj"/><path d="M106-169C34-169 62-67 57 0H25v-261h32l-1 103c12-21 28-36 61-36 89 0 53 116 60 194h-32v-121c2-32-8-49-39-48" id="ak"/><g id="q"><use transform="matrix(0.06172839506172839,0,0,0.06172839506172839,0,0)" xlink:href="#ah"/><use transform="matrix(0.06172839506172839,0,0,0.06172839506172839,15.987654320987653,0)" xlink:href="#ai"/><use transform="matrix(0.06172839506172839,0,0,0.06172839506172839,20.864197530864196,0)" xlink:href="#aj"/><use transform="matrix(0.06172839506172839,0,0,0.06172839506172839,33.20987654320987,0)" xlink:href="#ak"/></g><path d="M185-189c-5-48-123-54-124 2 14 75 158 14 163 119 3 78-121 87-175 55-17-10-28-26-33-46l33-7c5 56 141 63 141-1 0-78-155-14-162-118-5-82 145-84 179-34 5 7 8 16 11 25" id="al"/><path d="M96-169c-40 0-48 33-48 73s9 75 48 75c24 0 41-14 43-38l32 2c-6 37-31 61-74 61-59 0-76-41-82-99-10-93 101-131 147-64 4 7 5 14 7 22l-32 3c-4-21-16-35-41-35" id="am"/><path d="M100-194c62-1 85 37 85 99 1 63-27 99-86 99S16-35 15-95c0-66 28-99 85-99zM99-20c44 1 53-31 53-75 0-43-8-75-51-75s-53 32-53 75 10 74 51 75" id="an"/><path d="M114-163C36-179 61-72 57 0H25l-1-190h30c1 12-1 29 2 39 6-27 23-49 58-41v29" id="ao"/><path d="M100-194c63 0 86 42 84 106H49c0 40 14 67 53 68 26 1 43-12 49-29l28 8c-11 28-37 45-77 45C44 4 14-33 15-96c1-61 26-98 85-98zm52 81c6-60-76-77-97-28-3 7-6 17-6 28h103" id="ap"/><g id="r"><use transform="matrix(0.06172839506172839,0,0,0.06172839506172839,0,0)" xlink:href="#al"/><use transform="matrix(0.06172839506172839,0,0,0.06172839506172839,14.814814814814813,0)" xlink:href="#am"/><use transform="matrix(0.06172839506172839,0,0,0.06172839506172839,25.925925925925924,0)" xlink:href="#an"/><use transform="matrix(0.06172839506172839,0,0,0.06172839506172839,38.2716049382716,0)" xlink:href="#ao"/><use transform="matrix(0.06172839506172839,0,0,0.06172839506172839,45.61728395061728,0)" xlink:href="#ap"/></g><path d="M30-248c87 1 191-15 191 75 0 78-77 80-158 76V0H30v-248zm33 125c57 0 124 11 124-50 0-59-68-47-124-48v98" id="aq"/><path d="M141-36C126-15 110 5 73 4 37 3 15-17 15-53c-1-64 63-63 125-63 3-35-9-54-41-54-24 1-41 7-42 31l-33-3c5-37 33-52 76-52 45 0 72 20 72 64v82c-1 20 7 32 28 27v20c-31 9-61-2-59-35zM48-53c0 20 12 33 32 33 41-3 63-29 60-74-43 2-92-5-92 41" id="ar"/><path d="M210-169c-67 3-38 105-44 169h-31v-121c0-29-5-50-35-48C34-165 62-65 56 0H25l-1-190h30c1 10-1 24 2 32 10-44 99-50 107 0 11-21 27-35 58-36 85-2 47 119 55 194h-31v-121c0-29-5-49-35-48" id="as"/><path d="M59-47c-2 24 18 29 38 22v24C64 9 27 4 27-40v-127H5v-23h24l9-43h21v43h35v23H59v120" id="at"/><g id="s"><use transform="matrix(0.06172839506172839,0,0,0.06172839506172839,0,0)" xlink:href="#aq"/><use transform="matrix(0.06172839506172839,0,0,0.06172839506172839,14.814814814814813,0)" xlink:href="#ar"/><use transform="matrix(0.06172839506172839,0,0,0.06172839506172839,27.160493827160494,0)" xlink:href="#ao"/><use transform="matrix(0.06172839506172839,0,0,0.06172839506172839,34.50617283950617,0)" xlink:href="#ar"/><use transform="matrix(0.06172839506172839,0,0,0.06172839506172839,46.85185185185185,0)" xlink:href="#as"/><use transform="matrix(0.06172839506172839,0,0,0.06172839506172839,65.30864197530863,0)" xlink:href="#ap"/><use transform="matrix(0.06172839506172839,0,0,0.06172839506172839,77.65432098765432,0)" xlink:href="#at"/><use transform="matrix(0.06172839506172839,0,0,0.06172839506172839,83.82716049382715,0)" xlink:href="#ap"/><use transform="matrix(0.06172839506172839,0,0,0.06172839506172839,96.17283950617283,0)" xlink:href="#ao"/></g></defs></g></svg>